<?xml version="1.0" encoding="UTF-8"?>
<!DOCTYPE svg PUBLIC "-//W3C//DTD SVG 1.1//EN" "http://www.w3.org/Graphics/SVG/1.1/DTD/svg11.dtd">
<svg xmlns="http://www.w3.org/2000/svg" version="1.1" width="995px" height="1206px" style="shape-rendering:geometricPrecision; text-rendering:geometricPrecision; image-rendering:optimizeQuality; fill-rule:evenodd; clip-rule:evenodd" xmlns:xlink="http://www.w3.org/1999/xlink">
<g><path style="opacity:1" fill="#0b4a7a" d="M -0.5,-0.5 C 1.5,-0.5 3.5,-0.5 5.5,-0.5C 5.53859,0.75618 5.03859,1.75618 4,2.5C 3.5,403.5 3.33333,804.5 3.5,1205.5C 2.16667,1205.5 0.833333,1205.5 -0.5,1205.5C -0.5,803.5 -0.5,401.5 -0.5,-0.5 Z"/></g>
<g><path style="opacity:1" fill="#000000" d="M 5.5,-0.5 C 335.167,-0.5 664.833,-0.5 994.5,-0.5C 994.5,401.5 994.5,803.5 994.5,1205.5C 664.167,1205.5 333.833,1205.5 3.5,1205.5C 3.33333,804.5 3.5,403.5 4,2.5C 5.03859,1.75618 5.53859,0.75618 5.5,-0.5 Z"/></g>
<g><path style="opacity:1" fill="#ededed" d="M 290.5,113.5 C 296.729,113.027 298.395,115.36 295.5,120.5C 288.789,121.788 287.122,119.454 290.5,113.5 Z"/></g>
<g><path style="opacity:1" fill="#f0f0f0" d="M 770.5,114.5 C 782.456,113.395 789.622,118.728 792,130.5C 794.219,141.412 792.052,151.245 785.5,160C 770.523,166.759 761.357,161.925 758,145.5C 755.089,132.025 759.256,121.692 770.5,114.5 Z"/></g>
<g><path style="opacity:1" fill="#f5f5f5" d="M 85.5,115.5 C 87.8333,115.5 90.1667,115.5 92.5,115.5C 95.6595,127.47 98.8262,139.47 102,151.5C 104.847,139.779 107.847,128.113 111,116.5C 113.719,115.556 116.552,115.223 119.5,115.5C 122.347,127.551 125.513,139.551 129,151.5C 132.467,139.635 135.3,127.635 137.5,115.5C 140.247,115.187 142.914,115.52 145.5,116.5C 141.011,131.455 136.678,146.455 132.5,161.5C 130.167,162.833 127.833,162.833 125.5,161.5C 122.297,150.006 118.797,138.673 115,127.5C 111.364,139.045 108.197,150.711 105.5,162.5C 102.833,162.5 100.167,162.5 97.5,162.5C 93.6536,146.781 89.6536,131.114 85.5,115.5 Z"/></g>
<g><path style="opacity:1" fill="#f6f6f6" d="M 405.5,115.5 C 407.833,115.5 410.167,115.5 412.5,115.5C 412.334,124.173 412.5,132.84 413,141.5C 417.682,136.985 422.182,132.319 426.5,127.5C 429.446,126.345 432.446,126.179 435.5,127C 430.278,131.719 425.612,136.885 421.5,142.5C 426.309,149.143 431.309,155.643 436.5,162C 433.5,162.667 430.5,162.667 427.5,162C 423.667,156.833 419.833,151.667 416,146.5C 415,147.5 414,148.5 413,149.5C 412.501,153.821 412.334,158.154 412.5,162.5C 410.167,162.5 407.833,162.5 405.5,162.5C 405.5,146.833 405.5,131.167 405.5,115.5 Z"/></g>
<g><path style="opacity:1" fill="#eeeeee" d="M 739.5,162.5 C 739.833,149.15 739.499,135.817 738.5,122.5C 737.893,122.624 737.56,122.957 737.5,123.5C 734.277,125.364 731.11,127.364 728,129.5C 727.231,126.901 727.398,124.401 728.5,122C 731.672,120.248 734.672,118.248 737.5,116C 740.482,115.502 743.482,115.335 746.5,115.5C 746.5,131.167 746.5,146.833 746.5,162.5C 744.167,162.5 741.833,162.5 739.5,162.5 Z"/></g>
<g><path style="opacity:1" fill="#f4f4f4" d="M 830.5,114.5 C 841.693,113.012 848.86,117.678 852,128.5C 852.896,136.246 852.563,143.913 851,151.5C 846.055,162.927 837.888,166.093 826.5,161C 822.577,157.323 820.077,152.823 819,147.5C 817.356,137.992 818.689,128.992 823,120.5C 825.114,117.879 827.614,115.879 830.5,114.5 Z"/></g>
<g><path style="opacity:1" fill="#f3f3f3" d="M 872.5,114.5 C 883.693,113.012 890.86,117.678 894,128.5C 894.896,136.246 894.563,143.913 893,151.5C 888.055,162.927 879.888,166.093 868.5,161C 864.855,157.547 862.355,153.38 861,148.5C 860.104,140.754 860.437,133.087 862,125.5C 864.357,120.645 867.857,116.979 872.5,114.5 Z"/></g>
<g><path style="opacity:1" fill="#f7f7f7" d="M 187.5,118.5 C 189.833,118.5 192.167,118.5 194.5,118.5C 194.5,121.167 194.5,123.833 194.5,126.5C 196.833,126.5 199.167,126.5 201.5,126.5C 201.5,128.5 201.5,130.5 201.5,132.5C 199.167,132.5 196.833,132.5 194.5,132.5C 194.334,139.841 194.5,147.174 195,154.5C 196.789,156.229 198.956,156.896 201.5,156.5C 201.833,158.5 202.167,160.5 202.5,162.5C 197.151,163.539 192.651,162.205 189,158.5C 187.559,149.942 187.059,141.276 187.5,132.5C 185.833,132.5 184.167,132.5 182.5,132.5C 182.5,130.5 182.5,128.5 182.5,126.5C 184.167,126.5 185.833,126.5 187.5,126.5C 187.5,123.833 187.5,121.167 187.5,118.5 Z"/></g>
<g><path style="opacity:1" fill="#f6f6f6" d="M 346.5,118.5 C 348.833,118.5 351.167,118.5 353.5,118.5C 353.5,121.5 353.5,124.5 353.5,127.5C 355.833,127.5 358.167,127.5 360.5,127.5C 360.5,129.167 360.5,130.833 360.5,132.5C 358.167,132.5 355.833,132.5 353.5,132.5C 353.334,139.841 353.5,147.174 354,154.5C 355.916,155.928 358.083,156.928 360.5,157.5C 361.309,159.071 361.643,160.738 361.5,162.5C 356.151,163.539 351.651,162.205 348,158.5C 346.559,149.942 346.059,141.276 346.5,132.5C 344.833,132.5 343.167,132.5 341.5,132.5C 341.5,130.5 341.5,128.5 341.5,126.5C 343.167,126.5 344.833,126.5 346.5,126.5C 346.5,123.833 346.5,121.167 346.5,118.5 Z"/></g>
<g><path style="opacity:1" fill="#050505" d="M 772.5,120.5 C 779.585,120.747 783.752,124.414 785,131.5C 785.717,137.225 785.384,142.891 784,148.5C 781.878,156.47 777.045,158.637 769.5,155C 767.438,152.932 766.272,150.432 766,147.5C 764.912,139.64 765.579,131.974 768,124.5C 769.667,123.267 771.167,121.933 772.5,120.5 Z"/></g>
<g><path style="opacity:1" fill="#050505" d="M 832.5,120.5 C 839.066,120.197 843.233,123.197 845,129.5C 845.667,135.5 845.667,141.5 845,147.5C 841.626,157.371 835.959,159.038 828,152.5C 824.705,143.474 824.705,134.474 828,125.5C 829.707,123.963 831.207,122.296 832.5,120.5 Z"/></g>
<g><path style="opacity:1" fill="#050505" d="M 874.5,120.5 C 882.212,120.11 886.379,123.776 887,131.5C 888.113,138.715 887.446,145.715 885,152.5C 877.041,159.038 871.374,157.371 868,147.5C 866.874,139.955 867.54,132.621 870,125.5C 871.707,123.963 873.207,122.296 874.5,120.5 Z"/></g>
<g><path style="opacity:1" fill="#aaaaaa" d="M 737.5,123.5 C 737.56,122.957 737.893,122.624 738.5,122.5C 739.499,135.817 739.833,149.15 739.5,162.5C 738.833,149.5 738.167,136.5 737.5,123.5 Z"/></g>
<g><path style="opacity:1" fill="#ebebeb" d="M 803.5,123.5 C 809.263,123.783 810.93,126.616 808.5,132C 800.208,132.89 798.542,130.057 803.5,123.5 Z"/></g>
<g><path style="opacity:1" fill="#ededed" d="M 157.5,126.5 C 166.051,124.86 172.218,127.86 176,135.5C 176.5,144.494 176.666,153.494 176.5,162.5C 174.167,162.5 171.833,162.5 169.5,162.5C 169.657,161.127 169.49,159.793 169,158.5C 163.49,164.043 157.323,164.876 150.5,161C 144.404,153.755 145.404,147.755 153.5,143C 158.359,142.067 163.192,141.234 168,140.5C 169.212,137.166 168.379,134.666 165.5,133C 161.1,131.664 157.434,132.664 154.5,136C 146.125,136.863 145.459,134.53 152.5,129C 154.315,128.243 155.981,127.41 157.5,126.5 Z"/></g>
<g><path style="opacity:1" fill="#f3f3f3" d="M 218.5,126.5 C 232.7,125.701 239.7,132.368 239.5,146.5C 231.167,146.5 222.833,146.5 214.5,146.5C 214.814,154.981 219.147,158.481 227.5,157C 229.677,155.485 231.844,153.985 234,152.5C 235.44,153.148 236.94,153.481 238.5,153.5C 237.017,158.481 233.684,161.647 228.5,163C 211.786,163.497 204.953,155.33 208,138.5C 209.963,133.044 213.463,129.044 218.5,126.5 Z"/></g>
<g><path style="opacity:1" fill="#ededed" d="M 247.5,126.5 C 249.5,126.5 251.5,126.5 253.5,126.5C 253.338,128.527 253.505,130.527 254,132.5C 256.629,127.436 260.796,125.436 266.5,126.5C 266.5,128.833 266.5,131.167 266.5,133.5C 263.813,133.336 261.146,133.503 258.5,134C 256.667,134.5 255.5,135.667 255,137.5C 254.5,145.827 254.334,154.16 254.5,162.5C 252.167,162.5 249.833,162.5 247.5,162.5C 247.5,150.5 247.5,138.5 247.5,126.5 Z"/></g>
<g><path style="opacity:1" fill="#f3f3f3" d="M 305.5,126.5 C 307.833,126.5 310.167,126.5 312.5,126.5C 311.813,132.599 313.146,133.099 316.5,128C 325.209,124.272 331.375,126.772 335,135.5C 335.5,144.494 335.666,153.494 335.5,162.5C 333.167,162.5 330.833,162.5 328.5,162.5C 328.666,154.16 328.5,145.827 328,137.5C 324.987,132.465 320.82,131.298 315.5,134C 314.299,134.903 313.465,136.069 313,137.5C 312.5,145.827 312.334,154.16 312.5,162.5C 310.167,162.5 307.833,162.5 305.5,162.5C 305.5,150.5 305.5,138.5 305.5,126.5 Z"/></g>
<g><path style="opacity:1" fill="#f1f1f1" d="M 449.5,126.5 C 464.341,125.009 471.341,131.675 470.5,146.5C 462.167,146.5 453.833,146.5 445.5,146.5C 446.033,154.761 450.366,158.261 458.5,157C 460.976,155.842 463.143,154.342 465,152.5C 466.44,153.148 467.94,153.481 469.5,153.5C 468.653,159.119 465.32,162.286 459.5,163C 443.211,163.7 436.378,155.867 439,139.5C 440.625,133.547 444.125,129.214 449.5,126.5 Z"/></g>
<g><path style="opacity:1" fill="#fefffe" d="M 289.5,127.5 C 291.5,127.5 293.5,127.5 295.5,127.5C 295.5,139.167 295.5,150.833 295.5,162.5C 293.5,162.5 291.5,162.5 289.5,162.5C 289.5,150.833 289.5,139.167 289.5,127.5 Z"/></g>
<g><path style="opacity:1" fill="#a8a8a8" d="M 289.5,127.5 C 291.607,126.532 293.941,126.198 296.5,126.5C 296.828,138.678 296.495,150.678 295.5,162.5C 295.5,150.833 295.5,139.167 295.5,127.5C 293.5,127.5 291.5,127.5 289.5,127.5 Z"/></g>
<g><path style="opacity:1" fill="#f1f1f1" d="M 377.5,126.5 C 384.555,125.111 390.388,127.111 395,132.5C 396.449,142.395 396.949,152.395 396.5,162.5C 394.167,162.5 391.833,162.5 389.5,162.5C 389.657,161.127 389.49,159.793 389,158.5C 382.613,164.716 375.946,165.049 369,159.5C 364.387,150.222 367.221,144.389 377.5,142C 380.833,141.667 384.167,141.333 387.5,141C 390.46,135.567 388.627,132.734 382,132.5C 379.226,132.305 377.059,133.305 375.5,135.5C 373.257,136.474 370.924,136.808 368.5,136.5C 368.491,134.692 368.991,133.025 370,131.5C 372.479,129.686 374.979,128.019 377.5,126.5 Z"/></g>
<g><path style="opacity:1" fill="#080808" d="M 219.5,132.5 C 227.291,130.874 231.624,133.874 232.5,141.5C 226.5,141.5 220.5,141.5 214.5,141.5C 214.891,137.779 216.558,134.779 219.5,132.5 Z"/></g>
<g><path style="opacity:1" fill="#080808" d="M 451.5,132.5 C 458.918,131.19 462.918,134.19 463.5,141.5C 457.5,141.5 451.5,141.5 445.5,141.5C 446.26,137.639 448.26,134.639 451.5,132.5 Z"/></g>
<g><path style="opacity:1" fill="#0d0d0d" d="M 167.5,145.5 C 170.556,152.655 167.889,156.655 159.5,157.5C 155.808,157.676 153.808,156.009 153.5,152.5C 153.686,150.42 154.686,148.92 156.5,148C 160.392,147.581 164.058,146.748 167.5,145.5 Z"/></g>
<g><path style="opacity:1" fill="#0a0a0a" d="M 387.5,145.5 C 390.025,148.966 389.692,152.466 386.5,156C 382.321,158.11 378.321,157.944 374.5,155.5C 372.993,153.031 373.327,150.865 375.5,149C 379.593,147.758 383.593,146.591 387.5,145.5 Z"/></g>
<g><path style="opacity:1" fill="#f2f2f2" d="M 803.5,147.5 C 809.643,148.026 810.976,150.86 807.5,156C 802.824,156.986 800.658,155.152 801,150.5C 801.698,149.309 802.531,148.309 803.5,147.5 Z"/></g>
<g><path style="opacity:1" fill="#ececec" d="M 130.5,247.5 C 135.844,247.334 141.177,247.501 146.5,248C 147.444,250.719 147.777,253.552 147.5,256.5C 157.745,259.578 164.579,266.244 168,276.5C 165.469,295.914 170.302,313.081 182.5,328C 182.241,329.261 181.574,330.261 180.5,331C 171.149,331.168 161.816,331.668 152.5,332.5C 151.872,334.258 150.872,335.758 149.5,337C 142.167,337.667 134.833,337.667 127.5,337C 126.128,335.758 125.128,334.258 124.5,332.5C 115.184,331.668 105.851,331.168 96.5,331C 95.4258,330.261 94.7591,329.261 94.5,328C 106.508,313.016 111.341,295.85 109,276.5C 112.461,266.204 119.294,259.537 129.5,256.5C 129.264,253.391 129.597,250.391 130.5,247.5 Z"/></g>
<g><path style="opacity:1" fill="#9ea4b0" d="M 848.5,247.5 C 848.5,257.167 848.5,266.833 848.5,276.5C 846.585,276.216 844.919,276.549 843.5,277.5C 828.141,283.904 824.308,294.57 832,309.5C 834.88,313.549 838.714,316.215 843.5,317.5C 844.919,318.451 846.585,318.784 848.5,318.5C 848.5,328.167 848.5,337.833 848.5,347.5C 845.751,347.726 843.084,347.393 840.5,346.5C 839.639,342.417 838.473,338.417 837,334.5C 831.751,330.347 826.917,330.847 822.5,336C 821.167,336.667 819.833,336.667 818.5,336C 814.907,332.915 811.907,329.415 809.5,325.5C 810.655,321.856 812.322,318.523 814.5,315.5C 813.946,313.39 813.112,311.39 812,309.5C 807.827,308.247 803.66,306.914 799.5,305.5C 798.167,300.167 798.167,294.833 799.5,289.5C 803.398,288.025 807.398,286.858 811.5,286C 812.627,284.247 813.627,282.413 814.5,280.5C 812.667,277.5 810.833,274.5 809,271.5C 808.333,270.167 808.333,268.833 809,267.5C 812.085,263.907 815.585,260.907 819.5,258.5C 823.316,259.909 826.983,261.576 830.5,263.5C 832.61,262.946 834.61,262.112 836.5,261C 837.753,256.827 839.086,252.66 840.5,248.5C 843.084,247.607 845.751,247.274 848.5,247.5 Z"/></g>
<g><path style="opacity:1" fill="#9499a4" d="M 848.5,247.5 C 850.857,247.337 853.19,247.503 855.5,248C 857.691,251.9 859.357,256.067 860.5,260.5C 862.487,262.501 864.82,263.335 867.5,263C 870.226,260.97 873.226,259.47 876.5,258.5C 878.266,259.091 879.933,259.924 881.5,261C 882.333,263.167 883.833,264.667 886,265.5C 886.781,266.729 887.281,268.062 887.5,269.5C 886.53,272.774 885.03,275.774 883,278.5C 882.79,281.269 883.623,283.769 885.5,286C 889.347,287.616 893.347,288.616 897.5,289C 898.637,294.082 898.804,299.249 898,304.5C 894.008,306.244 889.842,307.744 885.5,309C 883.623,311.231 882.79,313.731 883,316.5C 885.784,319.717 887.118,323.384 887,327.5C 883.915,331.093 880.415,334.093 876.5,336.5C 873.167,334.833 869.833,333.167 866.5,331.5C 864.39,332.054 862.39,332.888 860.5,334C 858.67,337.991 857.336,342.158 856.5,346.5C 853.916,347.393 851.249,347.726 848.5,347.5C 848.5,337.833 848.5,328.167 848.5,318.5C 846.585,318.784 844.919,318.451 843.5,317.5C 861.96,317.872 870.127,308.872 868,290.5C 862.964,280.303 854.797,275.969 843.5,277.5C 844.919,276.549 846.585,276.216 848.5,276.5C 848.5,266.833 848.5,257.167 848.5,247.5 Z"/></g>
<g><path style="opacity:1" fill="#1d1d1d" d="M 136.5,248.5 C 140.908,248.062 142.575,250.062 141.5,254.5C 139.5,254.5 137.5,254.5 135.5,254.5C 135.325,252.379 135.659,250.379 136.5,248.5 Z"/></g>
<g><path style="opacity:1" fill="#ececec" d="M 107.5,252.5 C 111.677,251.842 113.177,253.508 112,257.5C 103.904,265.453 99.9035,275.119 100,286.5C 98.6124,287.554 97.1124,287.72 95.5,287C 93.9887,279.962 94.822,273.129 98,266.5C 100.939,261.603 104.106,256.936 107.5,252.5 Z"/></g>
<g><path style="opacity:1" fill="#ececec" d="M 165.5,252.5 C 166.978,252.238 168.311,252.571 169.5,253.5C 179.178,262.705 183.178,273.871 181.5,287C 179.888,287.72 178.388,287.554 177,286.5C 177.096,275.119 173.096,265.453 165,257.5C 164.36,255.735 164.527,254.068 165.5,252.5 Z"/></g>
<g><path style="opacity:1" fill="#020202" d="M 171.5,323.5 C 149.5,324.833 127.5,324.833 105.5,323.5C 113.249,308.161 116.749,291.827 116,274.5C 125.031,259.613 137.198,256.446 152.5,265C 156.134,267.425 158.968,270.592 161,274.5C 160.251,291.827 163.751,308.161 171.5,323.5 Z"/></g>
<g><path style="opacity:1" fill="#fbfbfb" d="M 644.5,262.5 C 646.199,262.34 647.866,262.506 649.5,263C 659.333,272.833 669.167,282.667 679,292.5C 679.667,294.167 679.667,295.833 679,297.5C 669.167,307.333 659.333,317.167 649.5,327C 643.498,327.993 641.332,325.493 643,319.5C 651.167,311.333 659.333,303.167 667.5,295C 659.333,286.833 651.167,278.667 643,270.5C 642.109,267.502 642.609,264.836 644.5,262.5 Z"/></g>
<g><path style="opacity:1" fill="#fbfbfb" d="M 317.5,262.5 C 322.15,262.653 324.65,264.986 325,269.5C 316.5,278 308,286.5 299.5,295C 308,303.5 316.5,312 325,320.5C 324.665,325.168 322.165,327.335 317.5,327C 306.791,316.625 296.457,305.959 286.5,295C 296.66,284.007 306.993,273.173 317.5,262.5 Z"/></g>
<g><path style="opacity:1" fill="#f3f3f3" d="M 391.5,270.5 C 403.833,270.5 416.167,270.5 428.5,270.5C 428.5,272.5 428.5,274.5 428.5,276.5C 423.5,276.5 418.5,276.5 413.5,276.5C 413.5,290.167 413.5,303.833 413.5,317.5C 411.167,317.5 408.833,317.5 406.5,317.5C 406.5,303.833 406.5,290.167 406.5,276.5C 401.5,276.5 396.5,276.5 391.5,276.5C 391.5,274.5 391.5,272.5 391.5,270.5 Z"/></g>
<g><path style="opacity:1" fill="#f3f3f3" d="M 493.5,270.5 C 495.833,270.5 498.167,270.5 500.5,270.5C 500.5,286.167 500.5,301.833 500.5,317.5C 498.167,317.5 495.833,317.5 493.5,317.5C 493.66,315.801 493.494,314.134 493,312.5C 484.552,321.037 476.886,320.371 470,310.5C 466.441,302.648 466.774,294.981 471,287.5C 478.529,279.612 485.863,279.612 493,287.5C 493.499,281.843 493.666,276.176 493.5,270.5 Z"/></g>
<g><path style="opacity:1" fill="#020202" d="M 843.5,277.5 C 854.797,275.969 862.964,280.303 868,290.5C 870.127,308.872 861.96,317.872 843.5,317.5C 838.714,316.215 834.88,313.549 832,309.5C 824.308,294.57 828.141,283.904 843.5,277.5 Z"/></g>
<g><path style="opacity:1" fill="#f3f3f3" d="M 439.5,281.5 C 456.28,280.784 463.447,288.784 461,305.5C 457.722,315.437 450.889,319.603 440.5,318C 427.5,310.086 425,299.586 433,286.5C 435.326,284.934 437.492,283.268 439.5,281.5 Z"/></g>
<g><path style="opacity:1" fill="#ededed" d="M 519.5,281.5 C 528.051,279.86 534.218,282.86 538,290.5C 538.5,299.494 538.666,308.494 538.5,317.5C 536.167,317.5 533.833,317.5 531.5,317.5C 531.657,316.127 531.49,314.793 531,313.5C 525.49,319.043 519.323,319.876 512.5,316C 506.404,308.755 507.404,302.755 515.5,298C 520.359,297.067 525.192,296.234 530,295.5C 531.212,292.166 530.379,289.666 527.5,288C 523.1,286.664 519.434,287.664 516.5,291C 508.125,291.863 507.459,289.53 514.5,284C 516.315,283.243 517.981,282.41 519.5,281.5 Z"/></g>
<g><path style="opacity:1" fill="#f1f1f1" d="M 543.5,281.5 C 546.119,281.232 548.619,281.565 551,282.5C 553.415,291.414 556.415,300.08 560,308.5C 563.143,299.573 565.976,290.573 568.5,281.5C 571.247,281.187 573.914,281.52 576.5,282.5C 571.175,295.307 566.342,308.307 562,321.5C 559.12,329.028 553.62,332.028 545.5,330.5C 545.833,328.5 546.167,326.5 546.5,324.5C 552.134,325.532 555.134,323.198 555.5,317.5C 551.492,305.489 547.492,293.489 543.5,281.5 Z"/></g>
<g><path style="opacity:1" fill="#080808" d="M 441.5,287.5 C 452.823,287.536 456.99,293.203 454,304.5C 452.41,311.214 448.244,313.714 441.5,312C 433.545,303.789 433.545,295.623 441.5,287.5 Z"/></g>
<g><path style="opacity:1" fill="#060606" d="M 481.5,287.5 C 487.264,286.798 491.097,289.131 493,294.5C 494.626,301.518 492.792,307.351 487.5,312C 481.653,313.328 477.82,311.161 476,305.5C 475.333,301.5 475.333,297.5 476,293.5C 477.36,290.977 479.193,288.977 481.5,287.5 Z"/></g>
<g><path style="opacity:1" fill="#0d0d0d" d="M 529.5,300.5 C 532.556,307.655 529.889,311.655 521.5,312.5C 517.808,312.676 515.808,311.009 515.5,307.5C 515.686,305.42 516.686,303.92 518.5,303C 522.392,302.581 526.058,301.748 529.5,300.5 Z"/></g>
<g><path style="opacity:1" fill="#656565" d="M 105.5,323.5 C 127.5,324.833 149.5,324.833 171.5,323.5C 172.043,323.56 172.376,323.893 172.5,324.5C 149.833,325.833 127.167,325.833 104.5,324.5C 104.624,323.893 104.957,323.56 105.5,323.5 Z"/></g>
<g><path style="opacity:1" fill="#0f0f0f" d="M 130.5,332.5 C 135.65,331.349 140.984,331.183 146.5,332C 141.243,337.735 135.909,337.901 130.5,332.5 Z"/></g>
<g><path style="opacity:1" fill="#4516fe" d="M 106.5,397.5 C 211.167,397.333 315.834,397.5 420.5,398C 432,401.5 439.5,409 443,420.5C 443.667,438.5 443.667,456.5 443,474.5C 439.5,486 432,493.5 420.5,497C 315.833,497.667 211.167,497.667 106.5,497C 95,493.5 87.5,486 84,474.5C 83.8333,465.5 83.6667,456.5 83.5,447.5C 83.3705,437.43 83.8705,427.43 85,417.5C 89.1713,407.491 96.338,400.825 106.5,397.5 Z"/></g>
<g><path style="opacity:1" fill="#f7f3ff" d="M 152.5,431.5 C 154.924,431.192 157.257,431.526 159.5,432.5C 163.936,443.978 168.27,455.478 172.5,467C 170.421,467.808 168.421,467.641 166.5,466.5C 165.305,464.249 164.305,461.915 163.5,459.5C 158.5,458.167 153.5,458.167 148.5,459.5C 147.695,461.915 146.695,464.249 145.5,466.5C 143.579,467.641 141.579,467.808 139.5,467C 143.976,455.215 148.31,443.381 152.5,431.5 Z"/></g>
<g><path style="opacity:1" fill="#f8f6ff" d="M 195.5,431.5 C 197.167,431.5 198.833,431.5 200.5,431.5C 200.5,443.5 200.5,455.5 200.5,467.5C 198.833,467.5 197.167,467.5 195.5,467.5C 195.633,462.728 194.3,462.562 191.5,467C 181.101,468.936 175.768,464.603 175.5,454C 175.609,444.557 180.276,439.89 189.5,440C 191.624,441.122 193.457,442.622 195,444.5C 195.499,440.179 195.666,435.846 195.5,431.5 Z"/></g>
<g><path style="opacity:1" fill="#f9f7ff" d="M 226.5,431.5 C 228.167,431.5 229.833,431.5 231.5,431.5C 231.5,443.5 231.5,455.5 231.5,467.5C 229.833,467.5 228.167,467.5 226.5,467.5C 226.633,462.728 225.3,462.562 222.5,467C 211.925,468.936 206.592,464.436 206.5,453.5C 206.838,444.326 211.504,439.826 220.5,440C 222.624,441.122 224.457,442.622 226,444.5C 226.499,440.179 226.666,435.846 226.5,431.5 Z"/></g>
<g><path style="opacity:1" fill="#faf9ff" d="M 329.5,440.5 C 331.167,440.5 332.833,440.5 334.5,440.5C 334.5,441.833 334.5,443.167 334.5,444.5C 332.833,444.5 331.167,444.5 329.5,444.5C 329.171,450.537 329.504,456.537 330.5,462.5C 333.804,462.678 335.471,464.344 335.5,467.5C 331.397,468.231 327.897,467.231 325,464.5C 324.5,457.842 324.334,451.175 324.5,444.5C 323.167,444.5 321.833,444.5 320.5,444.5C 320.5,443.167 320.5,441.833 320.5,440.5C 321.5,440.5 322.5,440.5 323.5,440.5C 324.461,438.735 324.795,436.735 324.5,434.5C 325.833,434.5 327.167,434.5 328.5,434.5C 328.205,436.735 328.539,438.735 329.5,440.5 Z"/></g>
<g><path style="opacity:1" fill="#cbbbff" d="M 329.5,440.5 C 328.539,438.735 328.205,436.735 328.5,434.5C 327.167,434.5 325.833,434.5 324.5,434.5C 324.795,436.735 324.461,438.735 323.5,440.5C 323.5,438.167 323.5,435.833 323.5,433.5C 325.5,433.5 327.5,433.5 329.5,433.5C 329.5,435.833 329.5,438.167 329.5,440.5 Z"/></g>
<g><path style="opacity:1" fill="#582eff" d="M 155.5,438.5 C 158.051,442.785 160.051,447.452 161.5,452.5C 157.833,453.833 154.167,453.833 150.5,452.5C 152.175,447.805 153.842,443.138 155.5,438.5 Z"/></g>
<g><path style="opacity:1" fill="#f7f5ff" d="M 250.5,441.5 C 252.265,440.539 254.265,440.205 256.5,440.5C 257.676,446.539 259.176,452.539 261,458.5C 263.253,453.404 264.92,448.071 266,442.5C 268.333,439.833 270.667,439.833 273,442.5C 274.514,448.223 276.18,453.89 278,459.5C 279.663,453.183 281.163,446.849 282.5,440.5C 284.527,440.338 286.527,440.505 288.5,441C 286.01,449.139 283.51,457.306 281,465.5C 279,468.167 277,468.167 275,465.5C 273.46,459.715 271.627,454.048 269.5,448.5C 267.306,454.417 265.306,460.417 263.5,466.5C 261.833,467.833 260.167,467.833 258.5,466.5C 255.796,458.059 253.129,449.725 250.5,441.5 Z"/></g>
<g><path style="opacity:1" fill="#f2eeff" d="M 301.5,439.5 C 306.609,438.923 310.776,440.59 314,444.5C 315.432,452.054 315.932,459.721 315.5,467.5C 312.856,467.84 310.523,467.173 308.5,465.5C 304.771,467.508 300.771,468.008 296.5,467C 291.257,462.255 291.257,457.588 296.5,453C 300.084,451.927 303.75,451.26 307.5,451C 310.5,446.949 309.333,444.783 304,444.5C 301.143,445.031 298.477,446.031 296,447.5C 293.217,446.697 293.051,445.197 295.5,443C 297.432,441.541 299.432,440.375 301.5,439.5 Z"/></g>
<g><path style="opacity:1" fill="#f8f6ff" d="M 348.5,439.5 C 359.371,439.37 364.371,444.704 363.5,455.5C 357.167,455.5 350.833,455.5 344.5,455.5C 345.328,462.161 348.994,464.661 355.5,463C 357.868,460.706 360.535,460.206 363.5,461.5C 359.236,467.202 353.569,469.035 346.5,467C 342.835,465.332 340.668,462.499 340,458.5C 337.996,449.85 340.83,443.517 348.5,439.5 Z"/></g>
<g><path style="opacity:1" fill="#f0ebff" d="M 379.5,439.5 C 381.167,439.5 382.833,439.5 384.5,439.5C 384.5,441.167 384.5,442.833 384.5,444.5C 381.138,444.07 378.305,445.07 376,447.5C 375.5,454.158 375.334,460.825 375.5,467.5C 373.5,467.5 371.5,467.5 369.5,467.5C 369.5,458.5 369.5,449.5 369.5,440.5C 371.167,440.5 372.833,440.5 374.5,440.5C 374.343,441.873 374.51,443.207 375,444.5C 376.059,442.341 377.559,440.674 379.5,439.5 Z"/></g>
<g><path style="opacity:1" fill="#4f23ff" d="M 185.5,444.5 C 190.385,443.856 193.552,445.856 195,450.5C 196.051,455.687 194.551,459.853 190.5,463C 185.057,464.193 181.89,462.027 181,456.5C 180.02,451.476 181.52,447.476 185.5,444.5 Z"/></g>
<g><path style="opacity:1" fill="#4a1dff" d="M 216.5,444.5 C 224.982,444.765 228.149,449.099 226,457.5C 224.588,462.291 221.421,464.124 216.5,463C 212.695,458.909 211.528,454.076 213,448.5C 214.376,447.295 215.542,445.962 216.5,444.5 Z"/></g>
<g><path style="opacity:1" fill="#491cff" d="M 348.5,444.5 C 354.468,443.459 357.801,445.792 358.5,451.5C 353.786,451.827 349.12,451.493 344.5,450.5C 345.467,448.21 346.8,446.21 348.5,444.5 Z"/></g>
<g><path style="opacity:1" fill="#4c20ff" d="M 308.5,454.5 C 310.143,461.687 307.143,464.52 299.5,463C 296.92,460.88 296.92,458.713 299.5,456.5C 302.64,455.911 305.64,455.244 308.5,454.5 Z"/></g>
<g><path style="opacity:1" fill="#aa3729" d="M 296.5,525.5 C 276.833,525.5 257.167,525.5 237.5,525.5C 235.167,525.5 232.833,525.5 230.5,525.5C 230.5,532.167 230.5,538.833 230.5,545.5C 229.509,538.687 229.175,531.687 229.5,524.5C 252.006,524.169 274.34,524.503 296.5,525.5 Z"/></g>
<g><path style="opacity:1" fill="#d60627" d="M 237.5,525.5 C 237.5,529.5 237.5,533.5 237.5,537.5C 257.167,537.5 276.833,537.5 296.5,537.5C 296.5,540.167 296.5,542.833 296.5,545.5C 274.5,545.5 252.5,545.5 230.5,545.5C 230.5,538.833 230.5,532.167 230.5,525.5C 232.833,525.5 235.167,525.5 237.5,525.5 Z"/></g>
<g><path style="opacity:1" fill="#fe6142" d="M 237.5,525.5 C 257.167,525.5 276.833,525.5 296.5,525.5C 296.5,529.5 296.5,533.5 296.5,537.5C 276.833,537.5 257.167,537.5 237.5,537.5C 237.5,533.5 237.5,529.5 237.5,525.5 Z"/></g>
<g><path style="opacity:1" fill="#f7f7f7" d="M 477.5,541.5 C 484.574,541.161 491.574,541.661 498.5,543C 504.409,546.429 507.076,551.596 506.5,558.5C 507.312,567.382 503.645,573.549 495.5,577C 489.509,577.499 483.509,577.666 477.5,577.5C 477.5,565.5 477.5,553.5 477.5,541.5 Z"/></g>
<g><path style="opacity:1" fill="#7d7d7d" d="M 492.5,546.5 C 489.5,546.5 486.5,546.5 483.5,546.5C 483.5,555.167 483.5,563.833 483.5,572.5C 482.507,563.682 482.173,554.682 482.5,545.5C 486.042,545.187 489.375,545.521 492.5,546.5 Z"/></g>
<g><path style="opacity:1" fill="#040404" d="M 492.5,546.5 C 496.754,547.585 499.587,550.252 501,554.5C 503.102,568.232 497.268,574.232 483.5,572.5C 483.5,563.833 483.5,555.167 483.5,546.5C 486.5,546.5 489.5,546.5 492.5,546.5 Z"/></g>
<g><path style="opacity:1" fill="#ececec" d="M 521.5,549.5 C 531.663,549.072 536.996,553.906 537.5,564C 537.414,572.685 533.081,577.518 524.5,578.5C 512.49,574.848 508.99,567.182 514,555.5C 516.134,552.847 518.634,550.847 521.5,549.5 Z"/></g>
<g><path style="opacity:1" fill="#efefef" d="M 553.5,549.5 C 559.347,548.84 563.513,551.173 566,556.5C 566.5,563.492 566.666,570.492 566.5,577.5C 564.5,577.5 562.5,577.5 560.5,577.5C 560.666,570.825 560.5,564.158 560,557.5C 555.927,553.381 552.26,553.715 549,558.5C 548.5,564.825 548.334,571.158 548.5,577.5C 546.833,577.5 545.167,577.5 543.5,577.5C 543.5,568.5 543.5,559.5 543.5,550.5C 545.167,550.5 546.833,550.5 548.5,550.5C 548.343,551.873 548.51,553.207 549,554.5C 550.025,552.313 551.525,550.646 553.5,549.5 Z"/></g>
<g><path style="opacity:1" fill="#f0f0f0" d="M 581.5,549.5 C 592.033,549.699 597.033,555.032 596.5,565.5C 590.167,565.5 583.833,565.5 577.5,565.5C 578.328,572.161 581.994,574.661 588.5,573C 590.461,568.876 592.795,568.542 595.5,572C 588.718,580.42 581.552,580.587 574,572.5C 569.431,562.376 571.931,554.709 581.5,549.5 Z"/></g>
<g><path style="opacity:1" fill="#f0f0f0" d="M 603.5,551.5 C 608.123,550.408 609.956,552.075 609,556.5C 603.42,558.752 601.587,557.085 603.5,551.5 Z"/></g>
<g><path style="opacity:1" fill="#040404" d="M 521.5,554.5 C 530.63,554.83 533.797,559.496 531,568.5C 529.287,573.038 526.12,574.538 521.5,573C 516.202,566.804 516.202,560.637 521.5,554.5 Z"/></g>
<g><path style="opacity:1" fill="#0d0d0d" d="M 581.5,554.5 C 587.406,553.435 590.739,555.769 591.5,561.5C 586.833,561.5 582.167,561.5 577.5,561.5C 577.571,558.348 578.905,556.014 581.5,554.5 Z"/></g>
<g><path style="opacity:1" fill="#89dbfb" d="M 285.5,564.5 C 273.829,564.333 262.162,564.5 250.5,565C 243.95,573.377 237.616,581.877 231.5,590.5C 230.833,590.5 230.5,590.833 230.5,591.5C 227.203,594.736 224.37,598.403 222,602.5C 220.378,603.099 218.878,603.766 217.5,604.5C 217.5,605.833 217.5,607.167 217.5,608.5C 213.371,612.734 209.704,617.401 206.5,622.5C 247.828,623.5 289.161,623.833 330.5,623.5C 332.633,625.091 334.299,627.091 335.5,629.5C 287.5,630.833 239.5,630.833 191.5,629.5C 210.055,606.083 228.389,582.416 246.5,558.5C 257.819,557.334 269.152,557.168 280.5,558C 282.539,559.926 284.206,562.093 285.5,564.5 Z"/></g>
<g><path style="opacity:1" fill="#b9effe" d="M 285.5,564.5 C 300.852,583.858 315.852,603.525 330.5,623.5C 289.161,623.833 247.828,623.5 206.5,622.5C 209.704,617.401 213.371,612.734 217.5,608.5C 217.5,611.167 217.5,613.833 217.5,616.5C 221.833,616.5 226.167,616.5 230.5,616.5C 230.5,612.5 230.5,608.5 230.5,604.5C 226.167,604.5 221.833,604.5 217.5,604.5C 218.878,603.766 220.378,603.099 222,602.5C 224.37,598.403 227.203,594.736 230.5,591.5C 230.5,595.5 230.5,599.5 230.5,603.5C 235.167,603.5 239.833,603.5 244.5,603.5C 244.666,599.486 244.499,595.486 244,591.5C 239.934,590.536 235.767,590.203 231.5,590.5C 237.616,581.877 243.95,573.377 250.5,565C 262.162,564.5 273.829,564.333 285.5,564.5 Z"/></g>
<g><path style="opacity:1" fill="#e7e7e7" d="M 604.5,570.5 C 608.976,570.8 610.31,572.967 608.5,577C 602.339,577.878 601.006,575.711 604.5,570.5 Z"/></g>
<g><path style="opacity:1" fill="#f9fdff" d="M 231.5,590.5 C 235.767,590.203 239.934,590.536 244,591.5C 244.499,595.486 244.666,599.486 244.5,603.5C 239.833,603.5 235.167,603.5 230.5,603.5C 230.5,599.5 230.5,595.5 230.5,591.5C 230.5,590.833 230.833,590.5 231.5,590.5 Z"/></g>
<g><path style="opacity:1" fill="#fdfeff" d="M 217.5,604.5 C 221.833,604.5 226.167,604.5 230.5,604.5C 230.5,608.5 230.5,612.5 230.5,616.5C 226.167,616.5 221.833,616.5 217.5,616.5C 217.5,613.833 217.5,611.167 217.5,608.5C 217.5,607.167 217.5,605.833 217.5,604.5 Z"/></g>
<g><path style="opacity:1" fill="#5e7ce4" d="M 494.5,611.5 C 501.877,610.689 508.877,611.856 515.5,615C 522.44,620.436 524.274,627.269 521,635.5C 519.167,638.667 516.667,641.167 513.5,643C 525.828,649.976 528.328,659.476 521,671.5C 512.121,678.009 502.287,679.842 491.5,677C 480.517,672.2 476.683,664.033 480,652.5C 482.552,648.281 486.052,645.114 490.5,643C 482.085,638.652 479.252,631.819 482,622.5C 485.044,617.561 489.211,613.894 494.5,611.5 Z"/></g>
<g><path style="opacity:1" fill="#5e7ce4" d="M 552.5,611.5 C 569.844,609.593 580.011,617.26 583,634.5C 584.209,644.761 583.209,654.761 580,664.5C 574.846,675.994 566.013,680.494 553.5,678C 543.268,674.084 537.434,666.584 536,655.5C 534.885,645.679 535.552,636.012 538,626.5C 541.021,619.647 545.855,614.647 552.5,611.5 Z"/></g>
<g><path style="opacity:1" fill="#5f7de5" d="M 610.5,611.5 C 627.952,609.447 638.118,617.114 641,634.5C 642.07,644.713 641.07,654.713 638,664.5C 632.846,675.994 624.013,680.494 611.5,678C 604.427,675.928 599.594,671.428 597,664.5C 592.405,651.144 592.405,637.811 597,624.5C 600.076,618.589 604.576,614.255 610.5,611.5 Z"/></g>
<g><path style="opacity:1" fill="#020204" d="M 497.5,619.5 C 509.065,618.229 513.898,623.229 512,634.5C 506.243,640.261 499.91,640.927 493,636.5C 488.562,629.045 490.062,623.378 497.5,619.5 Z"/></g>
<g><path style="opacity:1" fill="#020204" d="M 555.5,619.5 C 565.687,619.174 571.52,624.174 573,634.5C 573.723,642.542 573.39,650.542 572,658.5C 568.762,668.536 562.262,671.703 552.5,668C 550.044,665.592 548.211,662.759 547,659.5C 545.581,650.875 545.248,642.208 546,633.5C 547.461,627.55 550.627,622.883 555.5,619.5 Z"/></g>
<g><path style="opacity:1" fill="#010103" d="M 613.5,619.5 C 624.196,619.358 630.029,624.691 631,635.5C 632.152,645.077 631.152,654.41 628,663.5C 623.407,669.537 617.573,671.037 610.5,668C 606.453,663.673 604.286,658.507 604,652.5C 602.392,642.683 603.725,633.35 608,624.5C 609.812,622.7 611.645,621.033 613.5,619.5 Z"/></g>
<g><path style="opacity:1" fill="#28414b" d="M 191.5,629.5 C 239.5,630.833 287.5,630.833 335.5,629.5C 336.043,629.56 336.376,629.893 336.5,630.5C 287.833,631.833 239.167,631.833 190.5,630.5C 190.624,629.893 190.957,629.56 191.5,629.5 Z"/></g>
<g><path style="opacity:1" fill="#5f7de6" d="M 673.5,633.5 C 676.247,633.187 678.914,633.52 681.5,634.5C 685.98,645.284 690.647,655.95 695.5,666.5C 700.258,655.979 704.758,645.312 709,634.5C 711.719,633.556 714.552,633.223 717.5,633.5C 717.5,648.167 717.5,662.833 717.5,677.5C 715.5,677.5 713.5,677.5 711.5,677.5C 711.666,667.161 711.5,656.828 711,646.5C 706.724,656.052 702.724,665.719 699,675.5C 697.164,677.604 694.998,677.938 692.5,676.5C 688.431,666.459 684.264,656.459 680,646.5C 679.5,656.828 679.334,667.161 679.5,677.5C 677.5,677.5 675.5,677.5 673.5,677.5C 673.5,662.833 673.5,648.167 673.5,633.5 Z"/></g>
<g><path style="opacity:1" fill="#607ee8" d="M 727.5,633.5 C 729.5,633.5 731.5,633.5 733.5,633.5C 733.5,646.167 733.5,658.833 733.5,671.5C 740.167,671.5 746.833,671.5 753.5,671.5C 753.5,673.5 753.5,675.5 753.5,677.5C 744.833,677.5 736.167,677.5 727.5,677.5C 727.5,662.833 727.5,648.167 727.5,633.5 Z"/></g>
<g><path style="opacity:1" fill="#305868" d="M 342.5,643.5 C 293.167,643.5 243.833,643.5 194.5,643.5C 191.167,643.5 187.833,643.5 184.5,643.5C 184.5,661.833 184.5,680.167 184.5,698.5C 183.503,680.007 183.17,661.341 183.5,642.5C 236.669,642.168 289.669,642.501 342.5,643.5 Z"/></g>
<g><path style="opacity:1" fill="#36b1e3" d="M 194.5,643.5 C 194.333,662.17 194.5,680.836 195,699.5C 196.079,705.251 198.579,710.251 202.5,714.5C 225.33,715.167 247.996,715.833 270.5,716.5C 246.498,716.667 222.498,716.5 198.5,716C 190.367,712.883 185.7,707.049 184.5,698.5C 184.5,680.167 184.5,661.833 184.5,643.5C 187.833,643.5 191.167,643.5 194.5,643.5 Z"/></g>
<g><path style="opacity:1" fill="#89ddfe" d="M 194.5,643.5 C 243.833,643.5 293.167,643.5 342.5,643.5C 342.964,663.567 342.464,683.567 341,703.5C 339.231,708.935 335.731,712.768 330.5,715C 323.589,716.384 316.589,716.884 309.5,716.5C 309.5,718.5 309.5,720.5 309.5,722.5C 305.167,722.5 300.833,722.5 296.5,722.5C 296.5,720.167 296.5,717.833 296.5,715.5C 292.167,715.5 287.833,715.5 283.5,715.5C 283.5,719.833 283.5,724.167 283.5,728.5C 282.539,726.735 282.205,724.735 282.5,722.5C 278.5,722.5 274.5,722.5 270.5,722.5C 270.5,720.5 270.5,718.5 270.5,716.5C 247.996,715.833 225.33,715.167 202.5,714.5C 198.579,710.251 196.079,705.251 195,699.5C 194.5,680.836 194.333,662.17 194.5,643.5 Z"/></g>
<g><path style="opacity:1" fill="#040408" d="M 498.5,647.5 C 511.042,646.862 516.208,652.529 514,664.5C 506.88,671.599 499.214,672.265 491,666.5C 486.296,657.249 488.796,650.916 498.5,647.5 Z"/></g>
<g><path style="opacity:1" fill="#f7fcfe" d="M 296.5,722.5 C 296.5,724.5 296.5,726.5 296.5,728.5C 292.167,728.5 287.833,728.5 283.5,728.5C 283.5,724.167 283.5,719.833 283.5,715.5C 287.833,715.5 292.167,715.5 296.5,715.5C 296.5,717.833 296.5,720.167 296.5,722.5 Z"/></g>
<g><path style="opacity:1" fill="#2fb5e9" d="M 270.5,722.5 C 274.5,722.5 278.5,722.5 282.5,722.5C 282.205,724.735 282.539,726.735 283.5,728.5C 287.833,728.5 292.167,728.5 296.5,728.5C 296.5,726.5 296.5,724.5 296.5,722.5C 300.833,722.5 305.167,722.5 309.5,722.5C 309.5,724.5 309.5,726.5 309.5,728.5C 316.841,728.334 324.174,728.5 331.5,729C 345.36,737.027 347.027,747.027 336.5,759C 333.911,760.197 331.244,761.197 328.5,762C 322.175,762.5 315.842,762.666 309.5,762.5C 309.5,764.5 309.5,766.5 309.5,768.5C 305.167,768.5 300.833,768.5 296.5,768.5C 296.5,766.167 296.5,763.833 296.5,761.5C 292.167,761.5 287.833,761.5 283.5,761.5C 283.5,763.833 283.5,766.167 283.5,768.5C 279.167,768.5 274.833,768.5 270.5,768.5C 270.5,766.5 270.5,764.5 270.5,762.5C 247.33,761.833 223.996,761.167 200.5,760.5C 192.523,750.26 192.523,740.093 200.5,730C 224.004,729.832 247.337,729.332 270.5,728.5C 270.5,726.5 270.5,724.5 270.5,722.5 Z"/></g>
<g><path style="opacity:1" fill="#0f8db8" d="M 270.5,728.5 C 247.337,729.332 224.004,729.832 200.5,730C 192.523,740.093 192.523,750.26 200.5,760.5C 223.996,761.167 247.33,761.833 270.5,762.5C 245.498,762.667 220.498,762.5 195.5,762C 184.812,756.123 181.978,747.623 187,736.5C 189.282,733.432 192.116,730.932 195.5,729C 220.498,728.5 245.498,728.333 270.5,728.5 Z"/></g>
<g><path style="opacity:1" fill="#eeeeee" d="M 498.5,740.5 C 508.352,739.245 514.686,743.245 517.5,752.5C 513.545,753.137 510.878,751.637 509.5,748C 501.385,743.818 495.552,745.984 492,754.5C 489.957,768.797 495.79,774.297 509.5,771C 511.377,768.874 512.377,766.374 512.5,763.5C 509.5,763.5 506.5,763.5 503.5,763.5C 503.5,761.833 503.5,760.167 503.5,758.5C 508.167,758.5 512.833,758.5 517.5,758.5C 519.368,770.12 514.535,776.787 503,778.5C 494.721,777.705 489.388,773.372 487,765.5C 484.438,753.968 488.272,745.635 498.5,740.5 Z"/></g>
<g><path style="opacity:1" fill="#fbfbfb" d="M 583.5,741.5 C 585.167,741.5 586.833,741.5 588.5,741.5C 588.5,753.5 588.5,765.5 588.5,777.5C 586.833,777.5 585.167,777.5 583.5,777.5C 583.5,765.5 583.5,753.5 583.5,741.5 Z"/></g>
<g><path style="opacity:1" fill="#f1f1f1" d="M 532.5,749.5 C 545.122,749.63 550.289,755.963 548,768.5C 544.218,777.874 537.718,780.374 528.5,776C 522.959,769.424 522.125,762.258 526,754.5C 527.965,752.45 530.132,750.783 532.5,749.5 Z"/></g>
<g><path style="opacity:1" fill="#e9e9e9" d="M 561.5,749.5 C 566.969,748.71 571.469,750.377 575,754.5C 576.432,762.054 576.932,769.721 576.5,777.5C 574.5,777.5 572.5,777.5 570.5,777.5C 570.649,776.448 570.483,775.448 570,774.5C 564.364,780.009 559.031,779.676 554,773.5C 552.622,769.102 553.788,765.602 557.5,763C 561.436,761.913 565.436,761.08 569.5,760.5C 571.06,756.71 569.727,754.71 565.5,754.5C 561.962,756.054 558.295,757.054 554.5,757.5C 555.4,753.599 557.733,750.932 561.5,749.5 Z"/></g>
<g><path style="opacity:1" fill="#f0f0f0" d="M 596.5,751.5 C 601.123,750.408 602.956,752.075 602,756.5C 596.42,758.752 594.587,757.085 596.5,751.5 Z"/></g>
<g><path style="opacity:1" fill="#0b0b0b" d="M 532.5,754.5 C 538.007,753.105 541.507,755.105 543,760.5C 544.051,765.687 542.551,769.853 538.5,773C 533.057,774.193 529.89,772.027 529,766.5C 527.745,761.738 528.912,757.738 532.5,754.5 Z"/></g>
<g><path style="opacity:1" fill="#f6fcfe" d="M 296.5,768.5 C 296.5,770.5 296.5,772.5 296.5,774.5C 292.167,774.5 287.833,774.5 283.5,774.5C 283.5,772.5 283.5,770.5 283.5,768.5C 283.5,766.167 283.5,763.833 283.5,761.5C 287.833,761.5 292.167,761.5 296.5,761.5C 296.5,763.833 296.5,766.167 296.5,768.5 Z"/></g>
<g><path style="opacity:1" fill="#0d0d0d" d="M 569.5,764.5 C 571.143,771.687 568.143,774.52 560.5,773C 558.398,771.267 558.065,769.267 559.5,767C 562.909,766.004 566.242,765.171 569.5,764.5 Z"/></g>
<g><path style="opacity:1" fill="#89dcfd" d="M 270.5,768.5 C 274.833,768.5 279.167,768.5 283.5,768.5C 283.5,770.5 283.5,772.5 283.5,774.5C 287.833,774.5 292.167,774.5 296.5,774.5C 296.5,772.5 296.5,770.5 296.5,768.5C 300.833,768.5 305.167,768.5 309.5,768.5C 309.5,770.5 309.5,772.5 309.5,774.5C 316.841,774.334 324.174,774.5 331.5,775C 345.36,783.027 347.027,793.027 336.5,805C 333.911,806.197 331.244,807.197 328.5,808C 322.175,808.5 315.842,808.666 309.5,808.5C 309.5,810.5 309.5,812.5 309.5,814.5C 305.167,814.5 300.833,814.5 296.5,814.5C 296.5,812.167 296.5,809.833 296.5,807.5C 292.167,807.5 287.833,807.5 283.5,807.5C 283.5,809.833 283.5,812.167 283.5,814.5C 279.167,814.5 274.833,814.5 270.5,814.5C 270.5,812.5 270.5,810.5 270.5,808.5C 247.67,807.668 224.67,807.168 201.5,807C 192.687,796.867 192.353,786.534 200.5,776C 224.004,775.832 247.337,775.332 270.5,774.5C 270.5,772.5 270.5,770.5 270.5,768.5 Z"/></g>
<g><path style="opacity:1" fill="#e8e8e8" d="M 597.5,770.5 C 601.976,770.8 603.31,772.967 601.5,777C 595.339,777.878 594.006,775.711 597.5,770.5 Z"/></g>
<g><path style="opacity:1" fill="#45aed9" d="M 270.5,774.5 C 247.337,775.332 224.004,775.832 200.5,776C 192.353,786.534 192.687,796.867 201.5,807C 224.67,807.168 247.67,807.668 270.5,808.5C 246.164,808.667 221.831,808.5 197.5,808C 184.338,802.477 181.172,793.311 188,780.5C 190.564,778.273 193.397,776.439 196.5,775C 221.164,774.5 245.831,774.333 270.5,774.5 Z"/></g>
<g><path style="opacity:1" fill="#f6fcfe" d="M 296.5,814.5 C 296.5,816.5 296.5,818.5 296.5,820.5C 292.167,820.5 287.833,820.5 283.5,820.5C 283.5,818.5 283.5,816.5 283.5,814.5C 283.5,812.167 283.5,809.833 283.5,807.5C 287.833,807.5 292.167,807.5 296.5,807.5C 296.5,809.833 296.5,812.167 296.5,814.5 Z"/></g>
<g><path style="opacity:1" fill="#5f7de5" d="M 504.5,867.5 C 503.957,867.56 503.624,867.893 503.5,868.5C 513.144,869.498 522.81,869.832 532.5,869.5C 532.5,872.167 532.5,874.833 532.5,877.5C 518.167,877.5 503.833,877.5 489.5,877.5C 489.336,874.813 489.503,872.146 490,869.5C 498,861.5 506,853.5 514,845.5C 517.451,842.044 520.118,838.044 522,833.5C 523.176,824.835 519.343,820.168 510.5,819.5C 502.707,819.769 499.04,823.769 499.5,831.5C 496.167,831.5 492.833,831.5 489.5,831.5C 491.917,815.436 501.25,808.936 517.5,812C 532.046,817.731 535.546,827.565 528,841.5C 520.699,850.635 512.866,859.301 504.5,867.5 Z"/></g>
<g><path style="opacity:1" fill="#5f7de5" d="M 559.5,867.5 C 558.957,867.56 558.624,867.893 558.5,868.5C 568.144,869.498 577.81,869.832 587.5,869.5C 587.5,872.167 587.5,874.833 587.5,877.5C 573.167,877.5 558.833,877.5 544.5,877.5C 544.187,874.753 544.52,872.086 545.5,869.5C 553.792,860.708 562.292,852.041 571,843.5C 573.827,840.671 575.827,837.337 577,833.5C 577.129,821.318 571.296,817.151 559.5,821C 555.808,823.55 554.142,827.05 554.5,831.5C 551.167,831.5 547.833,831.5 544.5,831.5C 546.915,815.437 556.248,808.937 572.5,812C 586.384,817.285 590.218,826.785 584,840.5C 576.337,849.994 568.17,858.994 559.5,867.5 Z"/></g>
<g><path style="opacity:1" fill="#5f7de4" d="M 615.5,811.5 C 632.047,809.212 642.214,816.212 646,832.5C 647.096,842.97 646.429,853.303 644,863.5C 636.694,878.569 625.528,882.402 610.5,875C 604.803,870.108 601.303,863.941 600,856.5C 599.333,848.167 599.333,839.833 600,831.5C 602.082,822.286 607.249,815.62 615.5,811.5 Z"/></g>
<g><path style="opacity:1" fill="#5f7de5" d="M 674.5,811.5 C 690.574,809.741 700.407,816.741 704,832.5C 705.133,842.985 704.467,853.318 702,863.5C 694.731,878.547 683.564,882.38 668.5,875C 662.516,869.867 659.016,863.367 658,855.5C 656.875,845.347 657.542,835.347 660,825.5C 662.774,818.557 667.607,813.89 674.5,811.5 Z"/></g>
<g><path style="opacity:1" fill="#2eb5ea" d="M 270.5,814.5 C 274.833,814.5 279.167,814.5 283.5,814.5C 283.5,816.5 283.5,818.5 283.5,820.5C 287.833,820.5 292.167,820.5 296.5,820.5C 296.5,818.5 296.5,816.5 296.5,814.5C 300.833,814.5 305.167,814.5 309.5,814.5C 309.5,816.5 309.5,818.5 309.5,820.5C 316.574,820.161 323.574,820.661 330.5,822C 336.061,824.562 339.894,828.728 342,834.5C 342.667,855.5 342.667,876.5 342,897.5C 340.278,905.556 335.444,910.723 327.5,913C 318.167,913.667 308.833,913.667 299.5,913C 301.834,908.826 302.834,904.326 302.5,899.5C 298.5,899.5 294.5,899.5 290.5,899.5C 288.055,915 278.888,922 263,920.5C 247.431,921.827 238.931,914.827 237.5,899.5C 233.167,899.5 228.833,899.5 224.5,899.5C 224.464,904.062 225.464,908.396 227.5,912.5C 219.528,913.498 211.528,913.831 203.5,913.5C 199.377,908.924 196.544,903.591 195,897.5C 194.333,877.167 194.333,856.833 195,836.5C 195.981,830.896 198.481,826.063 202.5,822C 225.337,821.832 248.004,821.332 270.5,820.5C 270.5,818.5 270.5,816.5 270.5,814.5 Z"/></g>
<g><path style="opacity:1" fill="#020204" d="M 619.5,819.5 C 628.3,819.451 633.8,823.785 636,832.5C 636.913,841.576 636.58,850.576 635,859.5C 631.782,868.686 625.616,871.519 616.5,868C 612.289,863.723 609.789,858.556 609,852.5C 607.083,842.053 608.916,832.387 614.5,823.5C 616.21,822.113 617.877,820.779 619.5,819.5 Z"/></g>
<g><path style="opacity:1" fill="#020204" d="M 677.5,819.5 C 685.138,818.967 690.305,822.3 693,829.5C 696.651,841.395 695.984,853.062 691,864.5C 679.579,873.175 671.913,870.508 668,856.5C 667.333,848.5 667.333,840.5 668,832.5C 669.488,826.858 672.655,822.525 677.5,819.5 Z"/></g>
<g><path style="opacity:1" fill="#048fbc" d="M 270.5,820.5 C 248.004,821.332 225.337,821.832 202.5,822C 198.481,826.063 195.981,830.896 195,836.5C 194.333,856.833 194.333,877.167 195,897.5C 196.544,903.591 199.377,908.924 203.5,913.5C 193.621,912.468 187.121,907.135 184,897.5C 183.333,876.833 183.333,856.167 184,835.5C 186.833,828.667 191.667,823.833 198.5,821C 222.498,820.5 246.498,820.333 270.5,820.5 Z"/></g>
<g><path style="opacity:1" fill="#5f7de6" d="M 728.5,833.5 C 731.247,833.187 733.914,833.52 736.5,834.5C 740.98,845.284 745.647,855.95 750.5,866.5C 755.258,855.979 759.758,845.312 764,834.5C 766.719,833.556 769.552,833.223 772.5,833.5C 772.5,848.167 772.5,862.833 772.5,877.5C 770.5,877.5 768.5,877.5 766.5,877.5C 766.666,867.161 766.5,856.828 766,846.5C 761.724,856.052 757.724,865.719 754,875.5C 752.164,877.604 749.998,877.938 747.5,876.5C 743.431,866.459 739.264,856.459 735,846.5C 734.5,856.828 734.334,867.161 734.5,877.5C 732.5,877.5 730.5,877.5 728.5,877.5C 728.5,862.833 728.5,848.167 728.5,833.5 Z"/></g>
<g><path style="opacity:1" fill="#607ee8" d="M 782.5,833.5 C 784.5,833.5 786.5,833.5 788.5,833.5C 788.5,846.167 788.5,858.833 788.5,871.5C 795.167,871.5 801.833,871.5 808.5,871.5C 808.5,873.5 808.5,875.5 808.5,877.5C 799.833,877.5 791.167,877.5 782.5,877.5C 782.5,862.833 782.5,848.167 782.5,833.5 Z"/></g>
<g><path style="opacity:1" fill="#2d3c6e" d="M 504.5,867.5 C 513.986,868.494 523.652,868.827 533.5,868.5C 533.81,871.713 533.477,874.713 532.5,877.5C 532.5,874.833 532.5,872.167 532.5,869.5C 522.81,869.832 513.144,869.498 503.5,868.5C 503.624,867.893 503.957,867.56 504.5,867.5 Z"/></g>
<g><path style="opacity:1" fill="#314278" d="M 559.5,867.5 C 568.986,868.494 578.652,868.827 588.5,868.5C 588.81,871.713 588.477,874.713 587.5,877.5C 587.5,874.833 587.5,872.167 587.5,869.5C 577.81,869.832 568.144,869.498 558.5,868.5C 558.624,867.893 558.957,867.56 559.5,867.5 Z"/></g>
<g><path style="opacity:1" fill="#e7e7e7" d="M 261.5,995.5 C 268.628,995.706 270.294,998.873 266.5,1005C 258.408,1005.09 256.741,1001.92 261.5,995.5 Z"/></g>
<g><path style="opacity:1" fill="#eaeaea" d="M 737.5,995.5 C 743.536,995.393 745.536,998.226 743.5,1004C 737.744,1006.57 734.911,1004.74 735,998.5C 736.045,997.627 736.878,996.627 737.5,995.5 Z"/></g>
<g><path style="opacity:1" fill="#ededed" d="M 842.5,995.5 C 849.628,995.706 851.294,998.873 847.5,1005C 841.498,1005.99 839.332,1003.49 841,997.5C 841.717,996.956 842.217,996.289 842.5,995.5 Z"/></g>
<g><path style="opacity:1" fill="#f8f8f8" d="M 59.5,997.5 C 62.1667,997.5 64.8333,997.5 67.5,997.5C 67.1686,1006.19 67.502,1014.86 68.5,1023.5C 75.9532,1014.88 83.6198,1006.38 91.5,998C 94.8823,997.176 98.2156,997.343 101.5,998.5C 93.753,1005.91 86.753,1013.91 80.5,1022.5C 87.2717,1032.45 94.2717,1042.28 101.5,1052C 98.1667,1052.67 94.8333,1052.67 91.5,1052C 85.6667,1044.17 79.8333,1036.33 74,1028.5C 71.6255,1030.54 69.6255,1032.87 68,1035.5C 67.5006,1041.16 67.3339,1046.82 67.5,1052.5C 64.8333,1052.5 62.1667,1052.5 59.5,1052.5C 59.5,1034.17 59.5,1015.83 59.5,997.5 Z"/></g>
<g><path style="opacity:1" fill="#f5f5f5" d="M 418.5,998.5 C 421.167,998.5 423.833,998.5 426.5,998.5C 426.5,1004.5 426.5,1010.5 426.5,1016.5C 426.5,1023.17 426.5,1029.83 426.5,1036.5C 423.833,1036.5 421.167,1036.5 418.5,1036.5C 418.5,1023.83 418.5,1011.17 418.5,998.5 Z"/></g>
<g><path style="opacity:1" fill="#f5f5f5" d="M 459.5,997.5 C 462.167,997.5 464.833,997.5 467.5,997.5C 467.169,1006.19 467.502,1014.86 468.5,1023.5C 476.04,1014.95 483.707,1006.45 491.5,998C 494.882,997.176 498.216,997.343 501.5,998.5C 495.149,1005.02 488.983,1011.68 483,1018.5C 482.15,1020.01 481.317,1021.51 480.5,1023C 487.485,1032.66 494.485,1042.32 501.5,1052C 498.167,1052.67 494.833,1052.67 491.5,1052C 485.788,1044.08 479.955,1036.24 474,1028.5C 472.237,1031.02 470.237,1033.35 468,1035.5C 467.501,1041.16 467.334,1046.82 467.5,1052.5C 464.833,1052.5 462.167,1052.5 459.5,1052.5C 459.5,1034.17 459.5,1015.83 459.5,997.5 Z"/></g>
<g><path style="opacity:1" fill="#f6f6f6" d="M 687.5,997.5 C 690.167,997.5 692.833,997.5 695.5,997.5C 695.5,1015.83 695.5,1034.17 695.5,1052.5C 692.833,1052.5 690.167,1052.5 687.5,1052.5C 687.662,1050.47 687.495,1048.47 687,1046.5C 681.58,1053.93 674.746,1055.43 666.5,1051C 659.122,1043.67 656.622,1034.83 659,1024.5C 662.284,1013.77 669.451,1009.6 680.5,1012C 683.278,1013.11 685.445,1014.95 687,1017.5C 687.5,1010.84 687.666,1004.17 687.5,997.5 Z"/></g>
<g><path style="opacity:1" fill="#f9f9f9" d="M 799.5,998.5 C 801.833,998.5 804.167,998.5 806.5,998.5C 806.173,1008.68 806.506,1018.68 807.5,1028.5C 813.33,1023.5 818.663,1018 823.5,1012C 826.833,1011.33 830.167,1011.33 833.5,1012C 827.613,1017.38 822.28,1023.22 817.5,1029.5C 823.288,1036.91 828.955,1044.41 834.5,1052C 831.167,1052.67 827.833,1052.67 824.5,1052C 820.121,1046.08 815.621,1040.24 811,1034.5C 810,1035.5 809,1036.5 808,1037.5C 807.501,1042.49 807.334,1047.49 807.5,1052.5C 804.833,1052.5 802.167,1052.5 799.5,1052.5C 799.5,1034.5 799.5,1016.5 799.5,998.5 Z"/></g>
<g><path style="opacity:1" fill="#adadad" d="M 799.5,998.5 C 801.948,997.527 804.615,997.194 807.5,997.5C 807.5,1007.83 807.5,1018.17 807.5,1028.5C 806.506,1018.68 806.173,1008.68 806.5,998.5C 804.167,998.5 801.833,998.5 799.5,998.5 Z"/></g>
<g><path style="opacity:1" fill="#f9f9f9" d="M 960.5,1008.5 C 960.5,1017.83 960.5,1027.17 960.5,1036.5C 957.833,1036.5 955.167,1036.5 952.5,1036.5C 952.5,1027.17 952.5,1017.83 952.5,1008.5C 952.5,1005.17 952.5,1001.83 952.5,998.5C 955.167,998.5 957.833,998.5 960.5,998.5C 960.5,1001.83 960.5,1005.17 960.5,1008.5 Z"/></g>
<g><path style="opacity:1" fill="#f5f5f5" d="M 281.5,1001.5 C 284.167,1001.5 286.833,1001.5 289.5,1001.5C 289.5,1004.83 289.5,1008.17 289.5,1011.5C 292.167,1011.5 294.833,1011.5 297.5,1011.5C 297.5,1013.83 297.5,1016.17 297.5,1018.5C 294.833,1018.5 292.167,1018.5 289.5,1018.5C 289.334,1027.17 289.5,1035.84 290,1044.5C 292.381,1045.44 294.881,1045.77 297.5,1045.5C 297.674,1047.86 298.007,1050.19 298.5,1052.5C 294.818,1052.67 291.152,1052.5 287.5,1052C 285,1050.83 283.167,1049 282,1046.5C 281.5,1036.84 281.334,1027.17 281.5,1017.5C 279.5,1017.5 277.5,1017.5 275.5,1017.5C 275.5,1015.5 275.5,1013.5 275.5,1011.5C 277.5,1011.5 279.5,1011.5 281.5,1011.5C 281.5,1008.17 281.5,1004.83 281.5,1001.5 Z"/></g>
<g><path style="opacity:1" fill="#828282" d="M 418.5,998.5 C 421.287,997.523 424.287,997.19 427.5,997.5C 427.823,1004.02 427.49,1010.36 426.5,1016.5C 426.5,1010.5 426.5,1004.5 426.5,998.5C 423.833,998.5 421.167,998.5 418.5,998.5 Z"/></g>
<g><path style="opacity:1" fill="#505050" d="M 960.5,1008.5 C 960.5,1005.17 960.5,1001.83 960.5,998.5C 957.833,998.5 955.167,998.5 952.5,998.5C 952.5,1001.83 952.5,1005.17 952.5,1008.5C 951.518,1005.04 951.185,1001.37 951.5,997.5C 954.833,997.5 958.167,997.5 961.5,997.5C 961.815,1001.37 961.482,1005.04 960.5,1008.5 Z"/></g>
<g><path style="opacity:1" fill="#f5f5f5" d="M 116.5,1011.5 C 133.642,1009.64 141.642,1017.31 140.5,1034.5C 130.833,1034.5 121.167,1034.5 111.5,1034.5C 112.476,1043.65 117.476,1047.48 126.5,1046C 129.023,1045.48 131.023,1044.15 132.5,1042C 141.253,1040.4 142.586,1042.74 136.5,1049C 125.641,1055.92 115.808,1054.76 107,1045.5C 100.013,1030.99 103.179,1019.66 116.5,1011.5 Z"/></g>
<g><path style="opacity:1" fill="#f5f5f5" d="M 159.5,1011.5 C 177.146,1009.15 185.48,1016.82 184.5,1034.5C 174.833,1034.5 165.167,1034.5 155.5,1034.5C 156.476,1043.65 161.476,1047.48 170.5,1046C 173.023,1045.48 175.023,1044.15 176.5,1042C 185.253,1040.4 186.586,1042.74 180.5,1049C 165.009,1057.84 154.175,1054 148,1037.5C 146.152,1026.2 149.986,1017.54 159.5,1011.5 Z"/></g>
<g><path style="opacity:1" fill="#f6f6f6" d="M 193.5,1011.5 C 196.167,1011.5 198.833,1011.5 201.5,1011.5C 201.337,1013.86 201.503,1016.19 202,1018.5C 206.017,1011.86 211.85,1009.7 219.5,1012C 227.618,1015.96 231.284,1022.46 230.5,1031.5C 231.82,1041.7 227.82,1048.86 218.5,1053C 211.42,1054.88 205.92,1052.71 202,1046.5C 201.5,1053.49 201.334,1060.49 201.5,1067.5C 198.833,1067.5 196.167,1067.5 193.5,1067.5C 193.5,1048.83 193.5,1030.17 193.5,1011.5 Z"/></g>
<g><path style="opacity:1" fill="#f5f5f5" d="M 259.5,1011.5 C 262.167,1011.5 264.833,1011.5 267.5,1011.5C 267.5,1025.17 267.5,1038.83 267.5,1052.5C 264.833,1052.5 262.167,1052.5 259.5,1052.5C 259.5,1038.83 259.5,1025.17 259.5,1011.5 Z"/></g>
<g><path style="opacity:1" fill="#f4f4f4" d="M 326.5,1011.5 C 329.167,1011.5 331.833,1011.5 334.5,1011.5C 334.334,1021.17 334.5,1030.84 335,1040.5C 338.865,1046.12 343.698,1046.95 349.5,1043C 350.46,1041.58 351.293,1040.08 352,1038.5C 352.5,1029.51 352.666,1020.51 352.5,1011.5C 355.167,1011.5 357.833,1011.5 360.5,1011.5C 360.5,1025.17 360.5,1038.83 360.5,1052.5C 357.833,1052.5 355.167,1052.5 352.5,1052.5C 352.663,1050.14 352.497,1047.81 352,1045.5C 347.599,1052.63 341.432,1054.8 333.5,1052C 331,1050.83 329.167,1049 328,1046.5C 326.588,1034.9 326.088,1023.23 326.5,1011.5 Z"/></g>
<g><path style="opacity:1" fill="#f3f3f3" d="M 370.5,1011.5 C 373.167,1011.5 375.833,1011.5 378.5,1011.5C 378.337,1013.86 378.503,1016.19 379,1018.5C 383.017,1011.86 388.85,1009.7 396.5,1012C 406.854,1017.83 410.688,1026.67 408,1038.5C 404.502,1050.66 396.668,1055.16 384.5,1052C 382.667,1050.17 380.833,1048.33 379,1046.5C 378.5,1053.49 378.334,1060.49 378.5,1067.5C 375.833,1067.5 373.167,1067.5 370.5,1067.5C 370.5,1048.83 370.5,1030.17 370.5,1011.5 Z"/></g>
<g><path style="opacity:1" fill="#f5f5f5" d="M 516.5,1011.5 C 533.449,1009.78 541.783,1017.45 541.5,1034.5C 531.833,1034.5 522.167,1034.5 512.5,1034.5C 512.713,1043.77 517.38,1047.61 526.5,1046C 529.193,1045.66 531.193,1044.32 532.5,1042C 541.923,1040.69 542.923,1043.36 535.5,1050C 521.959,1057.21 511.793,1054.05 505,1040.5C 501.541,1027.67 505.375,1018.01 516.5,1011.5 Z"/></g>
<g><path style="opacity:1" fill="#f5f5f5" d="M 560.5,1011.5 C 577.449,1009.78 585.783,1017.45 585.5,1034.5C 575.833,1034.5 566.167,1034.5 556.5,1034.5C 556.713,1043.77 561.38,1047.61 570.5,1046C 573.193,1045.66 575.193,1044.32 576.5,1042C 585.923,1040.69 586.923,1043.36 579.5,1050C 565.959,1057.21 555.793,1054.05 549,1040.5C 545.541,1027.67 549.375,1018.01 560.5,1011.5 Z"/></g>
<g><path style="opacity:1" fill="#f4f4f4" d="M 593.5,1011.5 C 596.167,1011.5 598.833,1011.5 601.5,1011.5C 601.337,1013.86 601.503,1016.19 602,1018.5C 606.017,1011.86 611.85,1009.7 619.5,1012C 629.854,1017.83 633.688,1026.67 631,1038.5C 627.502,1050.66 619.668,1055.16 607.5,1052C 605.667,1050.17 603.833,1048.33 602,1046.5C 601.5,1053.49 601.334,1060.49 601.5,1067.5C 598.833,1067.5 596.167,1067.5 593.5,1067.5C 593.5,1048.83 593.5,1030.17 593.5,1011.5 Z"/></g>
<g><path style="opacity:1" fill="#e8e8e8" d="M 722.5,1010.5 C 724.5,1010.5 726.5,1010.5 728.5,1010.5C 728.5,1013.17 728.5,1015.83 728.5,1018.5C 723.054,1017.34 718.887,1019.01 716,1023.5C 715.5,1033.16 715.334,1042.83 715.5,1052.5C 712.5,1052.5 709.5,1052.5 706.5,1052.5C 706.5,1038.83 706.5,1025.17 706.5,1011.5C 709.167,1011.5 711.833,1011.5 714.5,1011.5C 714.338,1013.53 714.505,1015.53 715,1017.5C 717.015,1014.59 719.515,1012.25 722.5,1010.5 Z"/></g>
<g><path style="opacity:1" fill="#f7f7f7" d="M 735.5,1011.5 C 738.167,1011.5 740.833,1011.5 743.5,1011.5C 743.5,1025.17 743.5,1038.83 743.5,1052.5C 740.833,1052.5 738.167,1052.5 735.5,1052.5C 735.5,1038.83 735.5,1025.17 735.5,1011.5 Z"/></g>
<g><path style="opacity:1" fill="#f7f7f7" d="M 771.5,1010.5 C 779.438,1009.88 784.938,1013.22 788,1020.5C 788.5,1031.16 788.667,1041.83 788.5,1052.5C 785.833,1052.5 783.167,1052.5 780.5,1052.5C 780.666,1042.83 780.5,1033.16 780,1023.5C 777.103,1018.85 772.937,1017.35 767.5,1019C 765.667,1020.17 764.167,1021.67 763,1023.5C 762.5,1033.16 762.334,1042.83 762.5,1052.5C 759.833,1052.5 757.167,1052.5 754.5,1052.5C 754.5,1038.83 754.5,1025.17 754.5,1011.5C 757.167,1011.5 759.833,1011.5 762.5,1011.5C 762.34,1013.2 762.506,1014.87 763,1016.5C 765.322,1013.6 768.155,1011.6 771.5,1010.5 Z"/></g>
<g><path style="opacity:1" fill="#e3e3e3" d="M 840.5,1011.5 C 843.5,1011.5 846.5,1011.5 849.5,1011.5C 849.5,1025.17 849.5,1038.83 849.5,1052.5C 846.5,1052.5 843.5,1052.5 840.5,1052.5C 840.5,1038.83 840.5,1025.17 840.5,1011.5 Z"/></g>
<g><path style="opacity:1" fill="#f5f5f5" d="M 876.5,1010.5 C 883.953,1009.98 889.453,1012.98 893,1019.5C 893.5,1030.49 893.667,1041.49 893.5,1052.5C 890.833,1052.5 888.167,1052.5 885.5,1052.5C 885.666,1042.49 885.5,1032.49 885,1022.5C 881.692,1018.67 877.526,1017.51 872.5,1019C 870.622,1020.54 869.122,1022.38 868,1024.5C 867.5,1033.83 867.334,1043.16 867.5,1052.5C 864.833,1052.5 862.167,1052.5 859.5,1052.5C 859.5,1038.83 859.5,1025.17 859.5,1011.5C 862.167,1011.5 864.833,1011.5 867.5,1011.5C 867.338,1013.53 867.505,1015.53 868,1017.5C 870.414,1014.58 873.247,1012.25 876.5,1010.5 Z"/></g>
<g><path style="opacity:1" fill="#f4f4f4" d="M 913.5,1011.5 C 917.514,1011.33 921.514,1011.5 925.5,1012C 928.333,1013.5 930.5,1015.67 932,1018.5C 932.497,1016.19 932.663,1013.86 932.5,1011.5C 935.167,1011.5 937.833,1011.5 940.5,1011.5C 940.667,1026.5 940.5,1041.5 940,1056.5C 937.073,1065.39 930.906,1069.39 921.5,1068.5C 913.912,1069.37 908.246,1066.53 904.5,1060C 906.336,1058.58 908.336,1057.41 910.5,1056.5C 915.862,1062.84 922.195,1064.01 929.5,1060C 932.499,1055.52 933.166,1050.69 931.5,1045.5C 928.849,1050.16 924.849,1052.16 919.5,1051.5C 909.757,1051.26 904.257,1046.26 903,1036.5C 901.036,1025.77 904.536,1017.44 913.5,1011.5 Z"/></g>
<g><path style="opacity:1" fill="#090909" d="M 119.5,1017.5 C 127.878,1016.55 132.211,1020.22 132.5,1028.5C 125.833,1028.5 119.167,1028.5 112.5,1028.5C 112.561,1023.38 114.894,1019.71 119.5,1017.5 Z"/></g>
<g><path style="opacity:1" fill="#090909" d="M 163.5,1017.5 C 171.878,1016.55 176.211,1020.22 176.5,1028.5C 169.833,1028.5 163.167,1028.5 156.5,1028.5C 156.561,1023.38 158.894,1019.71 163.5,1017.5 Z"/></g>
<g><path style="opacity:1" fill="#060606" d="M 209.5,1017.5 C 216.33,1016.83 220.496,1019.83 222,1026.5C 222.826,1031.59 222.492,1036.59 221,1041.5C 217.1,1046.53 212.267,1047.7 206.5,1045C 201.432,1038.51 200.265,1031.34 203,1023.5C 204.494,1020.69 206.66,1018.69 209.5,1017.5 Z"/></g>
<g><path style="opacity:1" fill="#080808" d="M 386.5,1017.5 C 392.347,1016.84 396.513,1019.17 399,1024.5C 399.667,1029.17 399.667,1033.83 399,1038.5C 395.648,1046.7 390.148,1048.53 382.5,1044C 376.066,1033.74 377.399,1024.91 386.5,1017.5 Z"/></g>
<g><path style="opacity:1" fill="#0a0a0a" d="M 520.5,1017.5 C 528.175,1017.17 532.508,1020.84 533.5,1028.5C 526.5,1028.5 519.5,1028.5 512.5,1028.5C 512.897,1023.11 515.563,1019.45 520.5,1017.5 Z"/></g>
<g><path style="opacity:1" fill="#0a0a0a" d="M 564.5,1017.5 C 572.175,1017.17 576.508,1020.84 577.5,1028.5C 570.5,1028.5 563.5,1028.5 556.5,1028.5C 556.897,1023.11 559.563,1019.45 564.5,1017.5 Z"/></g>
<g><path style="opacity:1" fill="#0b0b0b" d="M 609.5,1017.5 C 620.792,1018.69 625.292,1025.03 623,1036.5C 620.113,1046.03 614.28,1048.53 605.5,1044C 599.066,1033.74 600.399,1024.91 609.5,1017.5 Z"/></g>
<g><path style="opacity:1" fill="#060606" d="M 674.5,1017.5 C 683.855,1017.69 688.188,1022.53 687.5,1032C 688.26,1040.35 684.593,1045.18 676.5,1046.5C 669.141,1044.66 665.808,1039.82 666.5,1032C 666.091,1025.29 668.758,1020.46 674.5,1017.5 Z"/></g>
<g><path style="opacity:1" fill="#0b0b0b" d="M 918.5,1017.5 C 929.802,1018.72 934.302,1025.05 932,1036.5C 927.457,1046.64 921.123,1047.98 913,1040.5C 908.45,1031.2 910.283,1023.53 918.5,1017.5 Z"/></g>
<g><path style="opacity:1" fill="#f2f2f2" d="M 420.5,1042.5 C 428.41,1042.85 430.077,1046.01 425.5,1052C 417.03,1052.53 415.364,1049.36 420.5,1042.5 Z"/></g>
<g><path style="opacity:1" fill="#f1f1f1" d="M 954.5,1042.5 C 960.555,1042.05 962.721,1044.72 961,1050.5C 956.094,1055.03 952.927,1054.03 951.5,1047.5C 951.323,1045.03 952.323,1043.37 954.5,1042.5 Z"/></g>
</svg>
