<?xml version="1.0" standalone="no"?>
<!DOCTYPE svg PUBLIC "-//W3C//DTD SVG 20010904//EN"
 "http://www.w3.org/TR/2001/REC-SVG-20010904/DTD/svg10.dtd">
<svg version="1.0" xmlns="http://www.w3.org/2000/svg"
 width="1015.000000pt" height="620.000000pt" viewBox="0 0 1015.000000 620.000000"
 preserveAspectRatio="xMidYMid meet">

<g transform="translate(0.000000,620.000000) scale(0.100000,-0.100000)"
fill="#000000" stroke="none">
<path d="M50 3095 l0 -3055 5030 0 5030 0 0 3055 0 3055 -5030 0 -5030 0 0
-3055z m1590 2972 l0 -74 -44 -31 -44 -32 -746 0 -746 0 0 105 0 105 790 0
790 0 0 -73z m8460 -2972 l0 -3045 -5020 0 -5020 0 0 2935 0 2935 746 0 746 0
49 36 49 36 0 74 0 74 4225 0 4225 0 0 -3045z"/>
<path d="M312 6060 c-1 -30 1 -40 7 -31 8 12 12 12 25 2 10 -8 16 -9 16 -3 0
6 -5 14 -10 17 -8 5 -7 12 2 23 12 13 10 14 -9 4 -19 -11 -22 -9 -26 11 -2 12
-5 2 -5 -23z"/>
<path d="M640 6061 c0 -23 2 -41 4 -41 8 0 12 71 4 76 -4 3 -8 -13 -8 -35z"/>
<path d="M686 6092 c-2 -4 -1 -23 4 -42 l8 -35 1 43 c1 41 -3 50 -13 34z"/>
<path d="M795 6079 c-17 -17 -17 -19 -2 -14 13 6 17 2 17 -15 0 -16 -4 -20
-16 -16 -8 3 -12 2 -9 -4 3 -6 13 -10 21 -10 10 0 14 12 14 40 0 22 -1 40 -2
39 -2 0 -12 -9 -23 -20z"/>
<path d="M903 6060 c0 -25 2 -35 4 -22 2 12 2 32 0 45 -2 12 -4 2 -4 -23z"/>
<path d="M940 6050 c0 -27 3 -50 8 -50 4 0 7 23 7 50 0 28 -3 50 -7 50 -5 0
-8 -22 -8 -50z"/>
<path d="M1210 6061 c0 -23 2 -41 4 -41 8 0 12 71 4 76 -4 3 -8 -13 -8 -35z"/>
<path d="M1256 6092 c-2 -4 -1 -23 4 -42 l8 -35 1 43 c1 41 -3 50 -13 34z"/>
<path d="M1365 6079 c-17 -17 -17 -19 -2 -14 13 6 17 2 17 -15 0 -16 -4 -20
-16 -16 -8 3 -12 2 -9 -4 3 -6 13 -10 21 -10 10 0 14 12 14 40 0 22 -1 40 -2
39 -2 0 -12 -9 -23 -20z"/>
<path d="M1473 6060 c0 -25 2 -35 4 -22 2 12 2 32 0 45 -2 12 -4 2 -4 -23z"/>
<path d="M1525 6050 c0 -27 3 -50 8 -50 4 0 7 23 7 50 0 28 -3 50 -7 50 -5 0
-8 -22 -8 -50z"/>
<path d="M1025 6080 c-4 -6 -2 -17 5 -24 8 -11 8 -15 -2 -19 -10 -4 -10 -6 1
-6 11 -1 11 -4 0 -18 -11 -15 -11 -16 1 -6 11 10 17 10 29 0 14 -11 14 -10 1
7 -13 17 -13 18 5 15 11 -3 20 -10 20 -18 0 -23 31 -37 49 -22 13 11 14 17 5
28 -7 7 -19 13 -28 12 -9 0 -26 2 -39 6 -17 6 -20 10 -11 21 13 15 4 34 -16
34 -8 0 -17 -5 -20 -10z m35 -10 c0 -5 -7 -10 -15 -10 -8 0 -15 5 -15 10 0 6
7 10 15 10 8 0 15 -4 15 -10z m75 -59 c3 -5 1 -13 -5 -16 -15 -9 -43 3 -35 15
8 13 32 13 40 1z"/>
<path d="M120 6038 c0 -24 4 -38 8 -32 4 6 15 13 25 17 26 10 18 51 -10 55
-21 3 -23 -1 -23 -40z m40 12 c0 -11 -4 -20 -9 -20 -14 0 -23 18 -16 30 10 17
25 11 25 -10z"/>
<path d="M199 6075 c-1 -3 -2 -8 -3 -12 -1 -5 -4 -13 -8 -19 -10 -15 1 -24 27
-24 18 0 21 5 17 30 -2 17 -10 30 -18 30 -8 0 -15 -2 -15 -5z m21 -35 c0 -5
-4 -10 -10 -10 -5 0 -10 5 -10 10 0 6 5 10 10 10 6 0 10 -4 10 -10z"/>
<path d="M254 6065 c-4 -8 -4 -22 0 -30 6 -16 36 -21 36 -5 0 5 -7 7 -15 4
-11 -4 -15 0 -15 16 0 16 4 20 15 16 8 -3 15 -1 15 4 0 16 -30 11 -36 -5z"/>
<path d="M389 6075 c-1 -3 -2 -8 -3 -12 -1 -5 -4 -13 -8 -19 -9 -14 0 -24 24
-24 13 0 18 8 18 30 0 20 -5 30 -15 30 -8 0 -16 -2 -16 -5z m21 -35 c0 -5 -4
-10 -10 -10 -5 0 -10 5 -10 10 0 6 5 10 10 10 6 0 10 -4 10 -10z"/>
<path d="M446 6072 c-3 -4 -4 -23 -4 -41 1 -27 5 -31 22 -29 16 2 22 11 24 41
3 31 0 37 -17 37 -11 0 -22 -4 -25 -8z m29 -22 c0 -7 -6 -15 -12 -17 -8 -3
-13 4 -13 17 0 13 5 20 13 18 6 -3 12 -11 12 -18z m2 -36 c-3 -3 -12 -4 -19
-1 -8 3 -5 6 6 6 11 1 17 -2 13 -5z"/>
<path d="M514 6066 c-13 -33 23 -65 41 -36 3 5 0 7 -8 4 -8 -3 -18 -1 -22 5
-3 7 3 11 15 11 13 0 20 5 18 13 -7 18 -37 21 -44 3z m33 -2 c-3 -3 -12 -4
-19 -1 -8 3 -5 6 6 6 11 1 17 -2 13 -5z"/>
<path d="M724 6066 c-8 -22 3 -49 19 -43 6 2 12 14 12 27 0 27 -22 39 -31 16z
m26 -16 c0 -11 -4 -20 -10 -20 -5 0 -10 9 -10 20 0 11 5 20 10 20 6 0 10 -9
10 -20z"/>
<path d="M844 6065 c-4 -8 -4 -22 0 -30 6 -16 36 -21 36 -5 0 5 -7 7 -15 4 -8
-4 -15 -1 -15 5 0 6 7 11 15 11 8 0 15 7 15 15 0 8 -7 15 -15 15 -9 0 -18 -7
-21 -15z"/>
<path d="M1294 6066 c-8 -22 3 -49 19 -43 6 2 12 14 12 27 0 27 -22 39 -31 16z
m26 -16 c0 -11 -4 -20 -10 -20 -5 0 -10 9 -10 20 0 11 5 20 10 20 6 0 10 -9
10 -20z"/>
<path d="M1414 6065 c-4 -8 -4 -22 0 -30 6 -16 36 -21 36 -5 0 5 -7 7 -15 4
-8 -4 -15 -1 -15 5 0 6 8 11 18 12 14 0 14 2 -3 8 l-20 8 20 5 c17 5 17 6 2 7
-10 0 -20 -6 -23 -14z"/>
<path d="M660 6040 c0 -5 5 -10 10 -10 6 0 10 5 10 10 0 6 -4 10 -10 10 -5 0
-10 -4 -10 -10z"/>
<path d="M1230 6040 c0 -5 5 -10 10 -10 6 0 10 5 10 10 0 6 -4 10 -10 10 -5 0
-10 -4 -10 -10z"/>
<path d="M1190 4480 c0 -731 -3 -1330 -7 -1330 -40 -1 -267 -31 -272 -36 -3
-3 14 -3 39 0 121 16 233 26 237 23 2 -2 2 -74 1 -159 l-3 -155 -137 62 c-76
35 -138 60 -138 57 0 -4 62 -35 138 -69 l137 -62 3 -1216 2 -1215 3420 0 3420
0 0 1059 c0 838 3 1060 13 1064 6 3 158 62 337 132 179 69 330 131 335 137 7
7 7 9 0 6 -10 -6 -497 -197 -622 -244 l-63 -24 0 268 0 269 28 -4 c86 -11 612
-84 637 -89 17 -4 27 -3 23 1 -4 4 -158 29 -343 55 -184 26 -338 49 -340 52
-3 3 -4 75 -3 161 l3 156 95 -43 c52 -24 206 -95 343 -159 136 -63 247 -112
247 -109 -1 4 -156 79 -345 166 l-345 159 0 1134 0 1133 -2210 0 -2210 0 0 75
0 75 -1210 0 -1210 0 0 -1330z m2410 1250 l0 -70 -1200 0 -1200 0 0 70 0 70
1200 0 1200 0 0 -70z m4420 -1205 l0 -1125 -32 14 c-54 23 -1070 496 -1108
516 -19 10 -136 64 -260 121 -124 56 -274 126 -335 155 -98 46 -114 51 -150
44 l-40 -8 45 -1 c35 -1 105 -29 309 -124 146 -67 266 -127 268 -133 2 -6 -6
-14 -17 -17 -31 -8 -24 -61 8 -65 20 -3 22 1 22 38 0 29 4 40 13 37 7 -2 11
-16 9 -35 -4 -34 20 -54 40 -34 8 8 5 9 -11 5 -12 -3 -21 -1 -21 6 0 6 9 11
19 11 11 0 21 6 24 13 3 9 8 9 21 -3 10 -8 24 -15 32 -16 7 -1 272 -122 589
-270 l575 -267 0 -163 c0 -90 -2 -164 -5 -164 -3 0 -98 14 -211 30 -114 17
-207 30 -208 28 -1 -2 -10 -14 -21 -28 l-20 -25 23 20 c28 23 34 23 265 -11
93 -13 171 -24 173 -24 2 0 4 -123 4 -273 l0 -272 -407 -159 c-801 -312 -816
-318 -802 -327 8 -5 19 -9 24 -9 6 0 5 4 -2 8 -7 5 225 100 570 235 320 124
590 229 600 233 16 6 17 -48 17 -1045 l0 -1051 -3410 0 -3410 0 0 1205 c0 663
2 1205 4 1205 14 0 1232 -564 1238 -573 4 -6 10 -8 14 -4 4 4 3 11 -2 16 -5 4
-289 136 -631 292 l-623 284 0 162 0 162 43 6 c152 20 1080 113 1095 110 9 -3
4 1 -12 8 -19 10 -37 11 -55 6 -14 -5 -246 -31 -516 -59 -269 -28 -505 -53
-522 -56 l-33 -5 0 1251 0 1250 3410 0 3410 0 0 -1125z m-1300 -590 c0 -16 -6
-25 -15 -25 -9 0 -15 9 -15 25 0 16 6 25 15 25 9 0 15 -9 15 -25z m70 15 c0
-5 -7 -10 -15 -10 -8 0 -15 5 -15 10 0 6 7 10 15 10 8 0 15 -4 15 -10z"/>
<path d="M2578 5560 c-16 -50 -13 -61 10 -38 10 10 17 10 32 0 29 -18 30 -16
12 38 -9 28 -21 50 -27 50 -6 0 -18 -22 -27 -50z m30 -19 c-15 -5 -19 4 -11
24 6 18 7 18 13 -1 4 -10 3 -21 -2 -23z"/>
<path d="M2660 5560 c0 -27 5 -50 10 -50 6 0 10 23 10 50 0 28 -4 50 -10 50
-5 0 -10 -22 -10 -50z"/>
<path d="M2700 5560 c0 -27 5 -50 10 -50 6 0 10 23 10 50 0 28 -4 50 -10 50
-5 0 -10 -22 -10 -50z"/>
<path d="M4140 5596 c0 -7 -9 -16 -21 -19 -16 -4 -20 -12 -17 -34 2 -22 9 -29
31 -31 26 -3 27 -2 27 47 0 28 -4 51 -10 51 -5 0 -10 -6 -10 -14z m0 -51 c0
-14 -4 -25 -9 -25 -12 0 -19 21 -13 38 8 21 22 13 22 -13z"/>
<path d="M4220 5600 c0 -5 5 -10 10 -10 6 0 10 5 10 10 0 6 -4 10 -10 10 -5 0
-10 -4 -10 -10z"/>
<path d="M4340 5600 c0 -5 5 -10 10 -10 6 0 10 5 10 10 0 6 -4 10 -10 10 -5 0
-10 -4 -10 -10z"/>
<path d="M4503 5595 c-11 -19 -4 -85 8 -85 8 0 14 47 10 78 -2 10 4 12 18 7
12 -4 21 -2 21 4 0 17 -48 13 -57 -4z"/>
<path d="M5010 5560 c0 -27 5 -50 10 -50 6 0 10 14 10 30 0 17 5 30 10 30 6 0
10 -13 10 -30 0 -16 5 -30 10 -30 6 0 10 14 10 31 0 22 -5 32 -20 36 -11 3
-20 12 -20 19 0 8 -4 14 -10 14 -5 0 -10 -22 -10 -50z"/>
<path d="M5170 5560 c0 -27 5 -50 10 -50 6 0 10 23 10 50 0 28 -4 50 -10 50
-5 0 -10 -22 -10 -50z"/>
<path d="M5210 5560 c0 -27 5 -50 10 -50 6 0 10 23 10 50 0 28 -4 50 -10 50
-5 0 -10 -22 -10 -50z"/>
<path d="M6310 5600 c0 -5 5 -10 10 -10 6 0 10 5 10 10 0 6 -4 10 -10 10 -5 0
-10 -4 -10 -10z"/>
<path d="M6390 5600 c0 -5 5 -10 10 -10 6 0 10 5 10 10 0 6 -4 10 -10 10 -5 0
-10 -4 -10 -10z"/>
<path d="M3339 5586 c-3 -3 -3 -21 -1 -41 6 -47 27 -46 26 2 -1 34 -12 51 -25
39z"/>
<path d="M3779 5586 c-3 -3 -3 -21 -1 -41 6 -47 27 -46 26 2 -1 34 -12 51 -25
39z"/>
<path d="M4579 5586 c-3 -3 -3 -21 -1 -41 6 -47 27 -46 26 2 -1 34 -12 51 -25
39z"/>
<path d="M6269 5586 c-3 -3 -3 -21 -1 -41 6 -47 27 -46 26 2 -1 34 -12 51 -25
39z"/>
<path d="M6349 5586 c-3 -3 -3 -21 -1 -41 6 -47 27 -46 26 2 -1 34 -12 51 -25
39z"/>
<path d="M2744 5566 c-11 -28 1 -51 25 -51 32 0 49 28 32 49 -17 20 -50 21
-57 2z m43 -12 c8 -22 -15 -44 -26 -25 -10 16 -4 41 10 41 5 0 12 -7 16 -16z"/>
<path d="M2823 5545 c11 -36 37 -48 37 -17 1 15 2 15 15 -2 16 -21 17 -21 34
11 14 27 14 43 1 43 -5 0 -10 -7 -10 -15 0 -8 -4 -15 -10 -15 -5 0 -10 7 -10
15 0 23 -20 18 -29 -7 l-8 -23 -7 23 c-4 12 -11 22 -16 22 -4 0 -3 -16 3 -35z"/>
<path d="M2972 5548 c2 -28 8 -34 31 -36 25 -3 27 -1 27 32 0 20 -4 36 -10 36
-5 0 -10 -13 -10 -30 0 -16 -4 -30 -10 -30 -5 0 -10 14 -10 30 0 17 -5 30 -11
30 -6 0 -9 -14 -7 -32z"/>
<path d="M3050 5564 c0 -9 8 -23 18 -31 16 -14 16 -14 0 -9 -10 3 -18 1 -18
-4 0 -14 37 -12 46 1 4 7 -4 20 -17 31 -16 14 -18 18 -6 14 9 -3 17 -1 17 4 0
6 -9 10 -20 10 -12 0 -20 -7 -20 -16z"/>
<path d="M3114 5566 c-15 -39 23 -74 50 -46 8 9 6 11 -11 5 -14 -4 -23 -2 -23
4 0 6 9 11 21 11 14 0 19 5 17 18 -4 22 -46 29 -54 8z m41 -6 c3 -5 -1 -10 -9
-10 -9 0 -16 5 -16 10 0 6 4 10 9 10 6 0 13 -4 16 -10z"/>
<path d="M3190 5545 c0 -19 5 -35 10 -35 6 0 10 13 10 29 0 16 6 32 13 34 6 3
2 6 -10 6 -20 1 -23 -4 -23 -34z"/>
<path d="M3240 5564 c0 -9 8 -23 18 -31 16 -14 16 -14 0 -9 -10 3 -18 1 -18
-4 0 -14 37 -12 46 1 4 7 -4 20 -17 31 -16 14 -18 18 -6 14 9 -3 17 -1 17 4 0
6 -9 10 -20 10 -12 0 -20 -7 -20 -16z"/>
<path d="M3384 5566 c-11 -28 1 -51 25 -51 32 0 49 28 32 49 -17 20 -50 21
-57 2z m43 -12 c8 -22 -15 -44 -26 -25 -10 16 -4 41 10 41 5 0 12 -7 16 -16z"/>
<path d="M3504 5566 c-15 -39 22 -74 49 -47 9 9 5 11 -13 9 -19 -2 -25 2 -25
17 0 15 6 19 23 18 13 -2 21 1 17 7 -9 15 -45 12 -51 -4z"/>
<path d="M3570 5545 c0 -19 5 -35 10 -35 6 0 10 13 10 29 0 16 6 32 13 34 6 3
2 6 -10 6 -20 1 -23 -4 -23 -34z"/>
<path d="M3624 5566 c-15 -39 23 -74 50 -46 8 9 6 11 -11 5 -14 -4 -23 -2 -23
4 0 6 9 11 21 11 14 0 19 5 17 18 -4 22 -46 29 -54 8z m41 -6 c3 -5 -1 -10 -9
-10 -9 0 -16 5 -16 10 0 6 4 10 9 10 6 0 13 -4 16 -10z"/>
<path d="M3705 5570 c-5 -9 0 -10 16 -6 l24 6 -22 -11 c-35 -18 -30 -49 8 -49
28 0 30 2 27 33 -2 24 -8 33 -25 35 -11 2 -24 -2 -28 -8z m35 -35 c0 -8 -4
-15 -9 -15 -13 0 -22 16 -14 24 11 11 23 6 23 -9z"/>
<path d="M3824 5566 c-15 -39 23 -74 50 -46 8 9 6 11 -11 5 -14 -4 -23 -2 -23
4 0 6 9 11 21 11 14 0 19 5 17 18 -4 22 -46 29 -54 8z m41 -6 c3 -5 -1 -10 -9
-10 -9 0 -16 5 -16 10 0 6 4 10 9 10 6 0 13 -4 16 -10z"/>
<path d="M3945 5570 c-5 -9 0 -10 16 -6 l24 6 -22 -11 c-35 -18 -30 -49 8 -49
28 0 30 2 27 33 -2 24 -8 33 -25 35 -11 2 -24 -2 -28 -8z m35 -35 c0 -8 -4
-15 -9 -15 -13 0 -22 16 -14 24 11 11 23 6 23 -9z"/>
<path d="M4020 5546 c0 -20 5 -36 10 -36 6 0 10 14 10 30 0 17 5 30 10 30 6 0
10 -13 10 -30 0 -16 5 -30 11 -30 6 0 9 14 7 33 -2 27 -8 33 -30 35 -26 3 -28
1 -28 -32z"/>
<path d="M4218 5530 c-2 -30 1 -49 7 -47 13 5 19 97 7 97 -6 0 -12 -23 -14
-50z"/>
<path d="M4264 5566 c-11 -28 1 -51 25 -51 32 0 49 28 32 49 -17 20 -50 21
-57 2z m43 -12 c8 -22 -15 -44 -26 -25 -10 16 -4 41 10 41 5 0 12 -7 16 -16z"/>
<path d="M4340 5545 c0 -19 5 -35 10 -35 6 0 10 16 10 35 0 19 -4 35 -10 35
-5 0 -10 -16 -10 -35z"/>
<path d="M4380 5546 c0 -20 5 -36 10 -36 6 0 10 14 10 30 0 17 5 30 10 30 6 0
10 -13 10 -30 0 -16 5 -30 11 -30 6 0 9 14 7 33 -2 27 -8 33 -30 35 -26 3 -28
1 -28 -32z"/>
<path d="M4540 5545 c0 -19 5 -35 10 -35 6 0 10 16 10 35 0 19 -4 35 -10 35
-5 0 -10 -16 -10 -35z"/>
<path d="M4620 5546 c0 -20 5 -36 10 -36 6 0 10 14 10 30 0 17 5 30 10 30 6 0
10 -13 10 -30 0 -16 5 -30 11 -30 6 0 9 14 7 33 -2 27 -8 33 -30 35 -26 3 -28
1 -28 -32z"/>
<path d="M4704 5566 c-15 -39 23 -74 50 -46 8 9 6 11 -11 5 -14 -4 -23 -2 -23
4 0 6 9 11 21 11 14 0 19 5 17 18 -4 22 -46 29 -54 8z m41 -6 c3 -5 -1 -10 -9
-10 -9 0 -16 5 -16 10 0 6 4 10 9 10 6 0 13 -4 16 -10z"/>
<path d="M4780 5564 c0 -9 8 -23 18 -31 16 -14 16 -14 0 -9 -10 3 -18 1 -18
-4 0 -16 37 -12 43 4 3 8 -4 22 -16 31 -16 12 -17 15 -4 11 9 -3 17 -1 17 4 0
6 -9 10 -20 10 -12 0 -20 -7 -20 -16z"/>
<path d="M4840 5564 c0 -9 8 -23 18 -31 16 -14 16 -14 0 -9 -10 3 -18 1 -18
-4 0 -14 37 -12 46 1 4 7 -4 20 -17 31 -16 14 -18 18 -6 14 9 -3 17 -1 17 4 0
6 -9 10 -20 10 -12 0 -20 -7 -20 -16z"/>
<path d="M4944 5566 c-15 -39 22 -74 49 -47 9 9 5 11 -13 9 -19 -2 -25 2 -25
17 0 15 6 19 23 18 13 -2 21 1 17 7 -9 15 -45 12 -51 -4z"/>
<path d="M5095 5570 c-5 -9 0 -10 16 -6 l24 6 -22 -11 c-35 -18 -30 -49 8 -49
28 0 30 2 27 33 -2 24 -8 33 -25 35 -11 2 -24 -2 -28 -8z m35 -35 c0 -8 -4
-15 -9 -15 -13 0 -22 16 -14 24 11 11 23 6 23 -9z"/>
<path d="M5254 5566 c-15 -39 23 -74 50 -46 8 9 6 11 -11 6 -12 -4 -24 -2 -28
4 -4 6 4 10 20 10 20 0 26 4 23 18 -4 22 -46 29 -54 8z m41 -6 c3 -5 -3 -10
-15 -10 -12 0 -18 5 -15 10 3 6 10 10 15 10 5 0 12 -4 15 -10z"/>
<path d="M5330 5546 c0 -20 5 -36 10 -36 6 0 10 14 10 30 0 17 5 30 10 30 6 0
10 -13 10 -30 0 -16 5 -30 11 -30 6 0 9 14 7 33 -2 27 -8 33 -30 35 -26 3 -28
1 -28 -32z"/>
<path d="M5417 5573 c-15 -15 -7 -55 13 -60 11 -3 20 -10 20 -15 0 -5 -10 -6
-22 -3 -18 6 -20 4 -12 -5 7 -6 20 -10 30 -8 15 2 20 14 22 51 3 44 1 47 -21
47 -13 0 -27 -3 -30 -7z m33 -28 c0 -26 -14 -33 -25 -15 -9 14 1 40 15 40 5 0
10 -11 10 -25z"/>
<path d="M5494 5566 c-15 -39 23 -74 50 -46 8 9 6 11 -11 6 -12 -4 -24 -2 -28
4 -4 6 4 10 20 10 20 0 26 4 23 18 -4 22 -46 29 -54 8z m41 -6 c3 -5 -3 -10
-15 -10 -12 0 -18 5 -15 10 3 6 10 10 15 10 5 0 12 -4 15 -10z"/>
<path d="M5570 5564 c0 -9 8 -23 18 -31 16 -14 16 -14 0 -9 -10 3 -18 1 -18
-4 0 -16 37 -12 43 4 3 8 -4 22 -16 31 -16 12 -17 15 -4 11 9 -3 17 -1 17 4 0
6 -9 10 -20 10 -12 0 -20 -7 -20 -16z"/>
<path d="M5674 5566 c-10 -25 0 -51 20 -54 27 -6 48 25 35 49 -12 22 -47 25
-55 5z m43 -12 c8 -21 -13 -42 -28 -27 -13 13 -5 43 11 43 6 0 13 -7 17 -16z"/>
<path d="M5750 5545 c0 -19 5 -35 10 -35 6 0 10 13 10 29 0 16 6 32 13 34 6 3
2 6 -10 6 -20 1 -23 -4 -23 -34z"/>
<path d="M5844 5566 c-10 -26 1 -51 24 -54 12 -2 22 1 22 6 0 5 -8 9 -17 8
-12 -1 -18 6 -18 19 0 13 6 20 18 19 9 -1 17 2 17 7 0 15 -40 10 -46 -5z"/>
<path d="M5914 5566 c-11 -29 0 -51 26 -51 21 0 25 5 25 30 0 24 -5 31 -23 33
-13 2 -24 -3 -28 -12z m43 -12 c8 -21 -13 -42 -28 -27 -13 13 -5 43 11 43 6 0
13 -7 17 -16z"/>
<path d="M5990 5545 c0 -19 5 -35 10 -35 6 0 10 14 10 30 0 17 5 30 10 30 6 0
10 -13 10 -30 0 -16 5 -30 10 -30 6 0 10 14 10 30 0 17 5 30 10 30 6 0 10 -13
10 -30 0 -16 5 -30 11 -30 6 0 9 14 7 33 -3 31 -5 32 -50 35 l-48 2 0 -35z"/>
<path d="M6110 5531 c0 -28 5 -51 10 -51 6 0 10 6 10 14 0 7 9 16 21 19 16 4
20 12 17 34 -2 22 -9 29 -30 31 -27 3 -28 2 -28 -47z m45 14 c0 -10 -6 -20
-12 -22 -8 -3 -13 5 -13 22 0 17 5 25 13 23 6 -3 12 -13 12 -23z"/>
<path d="M6194 5566 c-15 -39 23 -74 50 -46 8 9 6 11 -11 6 -12 -4 -24 -2 -28
4 -4 6 4 10 20 10 20 0 26 4 23 18 -4 22 -46 29 -54 8z m41 -6 c3 -5 -3 -10
-15 -10 -12 0 -18 5 -15 10 3 6 10 10 15 10 5 0 12 -4 15 -10z"/>
<path d="M6310 5545 c0 -19 5 -35 10 -35 6 0 10 16 10 35 0 19 -4 35 -10 35
-5 0 -10 -16 -10 -35z"/>
<path d="M6390 5545 c0 -19 5 -35 10 -35 6 0 10 16 10 35 0 19 -4 35 -10 35
-5 0 -10 -16 -10 -35z"/>
<path d="M6434 5566 c-11 -29 0 -51 26 -51 21 0 25 5 25 30 0 24 -5 31 -23 33
-13 2 -24 -3 -28 -12z m43 -12 c8 -21 -13 -42 -28 -27 -13 13 -5 43 11 43 6 0
13 -7 17 -16z"/>
<path d="M6510 5546 c0 -20 5 -36 10 -36 6 0 10 14 10 30 0 17 5 30 10 30 6 0
10 -13 10 -30 0 -16 5 -30 11 -30 6 0 9 14 7 33 -2 27 -8 33 -30 35 -26 3 -28
1 -28 -32z"/>
<path d="M6590 5564 c0 -9 8 -23 18 -31 16 -14 16 -14 0 -9 -10 3 -18 1 -18
-4 0 -16 37 -12 43 4 3 8 -4 22 -16 31 -16 12 -17 15 -4 11 9 -3 17 -1 17 4 0
6 -9 10 -20 10 -12 0 -20 -7 -20 -16z"/>
<path d="M6533 5423 c32 -2 81 -2 110 0 29 2 3 3 -58 3 -60 0 -84 -1 -52 -3z"/>
<path d="M6313 5413 c9 -2 23 -2 30 0 6 3 -1 5 -18 5 -16 0 -22 -2 -12 -5z"/>
<path d="M6833 5413 c9 -2 23 -2 30 0 6 3 -1 5 -18 5 -16 0 -22 -2 -12 -5z"/>
<path d="M6218 5403 c7 -3 16 -2 19 1 4 3 -2 6 -13 5 -11 0 -14 -3 -6 -6z"/>
<path d="M6938 5403 c7 -3 16 -2 19 1 4 3 -2 6 -13 5 -11 0 -14 -3 -6 -6z"/>
<path d="M6148 5393 c7 -3 16 -2 19 1 4 3 -2 6 -13 5 -11 0 -14 -3 -6 -6z"/>
<path d="M7008 5393 c7 -3 16 -2 19 1 4 3 -2 6 -13 5 -11 0 -14 -3 -6 -6z"/>
<path d="M6562 5300 c0 -33 2 -39 7 -21 9 35 29 37 34 4 4 -27 4 -27 6 5 1 25
-3 32 -18 32 -11 0 -22 6 -24 13 -3 6 -5 -8 -5 -33z"/>
<path d="M6693 5300 c0 -25 2 -35 4 -22 2 12 2 32 0 45 -2 12 -4 2 -4 -23z"/>
<path d="M6723 5300 c0 -25 2 -35 4 -22 2 12 2 32 0 45 -2 12 -4 2 -4 -23z"/>
<path d="M6145 5310 c-8 -13 -8 -12 20 -29 19 -12 19 -12 -4 -7 -17 3 -21 2
-13 -6 17 -17 42 -1 38 24 -3 25 -30 36 -41 18z"/>
<path d="M6219 5315 c-1 -3 -2 -8 -3 -12 -1 -5 -4 -13 -8 -19 -9 -14 0 -24 24
-24 13 0 18 8 18 30 0 20 -5 30 -15 30 -8 0 -16 -2 -16 -5z m21 -35 c0 -5 -4
-10 -10 -10 -5 0 -10 5 -10 10 0 6 5 10 10 10 6 0 10 -4 10 -10z"/>
<path d="M6271 5290 c6 -16 15 -30 19 -30 10 0 23 50 15 58 -3 3 -5 -2 -5 -11
0 -9 -4 -17 -10 -17 -5 0 -10 7 -10 15 0 8 -4 15 -9 15 -6 0 -6 -12 0 -30z"/>
<path d="M6334 5306 c-13 -33 23 -65 41 -36 3 5 0 7 -8 4 -8 -3 -18 -1 -22 5
-3 7 3 11 15 11 13 0 20 5 18 13 -7 18 -37 21 -44 3z m33 -2 c-3 -3 -12 -4
-19 -1 -8 3 -5 6 6 6 11 1 17 -2 13 -5z"/>
<path d="M6405 5310 c-8 -13 -8 -12 20 -29 19 -12 19 -12 -4 -7 -17 3 -21 2
-13 -6 17 -17 42 -1 38 24 -3 25 -30 36 -41 18z"/>
<path d="M6504 5305 c-4 -8 -4 -22 0 -30 6 -16 36 -21 36 -5 0 5 -7 7 -15 4
-11 -4 -15 0 -15 16 0 16 4 20 15 16 8 -3 15 -1 15 4 0 16 -30 11 -36 -5z"/>
<path d="M6639 5315 c-1 -3 -2 -8 -3 -12 -1 -5 -4 -13 -8 -19 -9 -14 0 -24 24
-24 13 0 18 8 18 30 0 20 -5 30 -15 30 -8 0 -16 -2 -16 -5z m21 -35 c0 -5 -4
-10 -10 -10 -5 0 -10 5 -10 10 0 6 5 10 10 10 6 0 10 -4 10 -10z"/>
<path d="M6754 5306 c-13 -33 23 -65 41 -36 3 5 0 7 -8 4 -8 -3 -18 -1 -22 5
-3 7 3 11 15 11 13 0 20 5 18 13 -7 18 -37 21 -44 3z m33 -2 c-3 -3 -12 -4
-19 -1 -8 3 -5 6 6 6 11 1 17 -2 13 -5z"/>
<path d="M6821 5288 c1 -30 2 -30 8 -9 9 35 29 37 34 4 4 -27 4 -27 6 5 1 28
-2 32 -24 32 -22 0 -25 -4 -24 -32z"/>
<path d="M6894 5307 c-10 -26 3 -62 22 -62 15 0 20 8 22 38 3 32 0 37 -18 37
-11 0 -23 -6 -26 -13z m31 -17 c0 -7 -6 -15 -12 -17 -8 -3 -13 4 -13 17 0 13
5 20 13 18 6 -3 12 -11 12 -18z m2 -36 c-3 -3 -12 -4 -19 -1 -8 3 -5 6 6 6 11
1 17 -2 13 -5z"/>
<path d="M6964 5306 c-13 -33 23 -65 41 -36 3 5 0 7 -8 4 -8 -3 -18 -1 -22 5
-3 7 3 11 15 11 13 0 20 5 18 13 -7 18 -37 21 -44 3z m33 -2 c-3 -3 -12 -4
-19 -1 -8 3 -5 6 6 6 11 1 17 -2 13 -5z"/>
<path d="M7274 5288 c1 -14 -11 -30 -33 -45 -19 -13 -29 -23 -23 -23 6 0 24
12 41 26 30 25 39 48 23 58 -5 3 -8 -5 -8 -16z"/>
<path d="M5937 5229 c7 -7 15 -10 18 -7 3 3 -2 9 -12 12 -14 6 -15 5 -6 -5z"/>
<path d="M6038 5193 c7 -3 16 -2 19 1 4 3 -2 6 -13 5 -11 0 -14 -3 -6 -6z"/>
<path d="M7118 5193 c7 -3 16 -2 19 1 4 3 -2 6 -13 5 -11 0 -14 -3 -6 -6z"/>
<path d="M6088 5183 c7 -3 16 -2 19 1 4 3 -2 6 -13 5 -11 0 -14 -3 -6 -6z"/>
<path d="M7068 5183 c7 -3 16 -2 19 1 4 3 -2 6 -13 5 -11 0 -14 -3 -6 -6z"/>
<path d="M6138 5173 c6 -2 18 -2 25 0 6 3 1 5 -13 5 -14 0 -19 -2 -12 -5z"/>
<path d="M7008 5173 c6 -2 18 -2 25 0 6 3 1 5 -13 5 -14 0 -19 -2 -12 -5z"/>
<path d="M6213 5163 c9 -2 23 -2 30 0 6 3 -1 5 -18 5 -16 0 -22 -2 -12 -5z"/>
<path d="M6933 5163 c9 -2 23 -2 30 0 6 3 -1 5 -18 5 -16 0 -22 -2 -12 -5z"/>
<path d="M6308 5153 c12 -2 32 -2 45 0 12 2 2 4 -23 4 -25 0 -35 -2 -22 -4z"/>
<path d="M6818 5153 c12 -2 32 -2 45 0 12 2 2 4 -23 4 -25 0 -35 -2 -22 -4z"/>
<path d="M6513 5143 c43 -2 110 -2 150 0 40 1 5 3 -78 3 -82 0 -115 -2 -72 -3z"/>
<path d="M6394 5048 c-35 -40 -47 -58 -38 -58 9 0 70 80 61 80 -2 0 -12 -10
-23 -22z"/>
<path d="M5885 4958 c-11 -11 -21 -14 -23 -9 -2 6 -8 11 -14 11 -7 0 -6 -5 1
-14 10 -11 10 -20 0 -38 -9 -19 -9 -21 2 -11 10 10 16 10 27 0 13 -10 14 -9 3
11 -12 23 -8 42 10 42 5 0 9 -13 9 -30 0 -16 3 -30 8 -30 7 0 8 78 0 84 -1 2
-12 -5 -23 -16z"/>
<path d="M6110 4971 c0 -5 -9 -11 -21 -14 -30 -8 -23 -61 9 -65 20 -3 22 1 22
42 0 25 -2 46 -5 46 -3 0 -5 -4 -5 -9z m0 -46 c0 -16 -6 -25 -15 -25 -9 0 -15
9 -15 25 0 16 6 25 15 25 9 0 15 -9 15 -25z"/>
<path d="M5787 4954 c-4 -4 -7 -18 -7 -31 0 -27 26 -41 43 -24 9 9 8 11 -4 6
-10 -4 -20 -2 -24 4 -3 7 3 11 15 11 15 0 20 5 18 17 -3 19 -29 29 -41 17z
m33 -14 c0 -5 -7 -10 -16 -10 -8 0 -12 5 -9 10 3 6 10 10 16 10 5 0 9 -4 9
-10z"/>
<path d="M5937 4954 c-4 -4 -7 -18 -7 -31 0 -26 26 -41 42 -25 8 8 5 9 -11 5
-12 -3 -21 -1 -21 6 0 6 9 11 21 11 14 0 19 5 17 17 -3 19 -29 29 -41 17z m33
-14 c0 -5 -7 -10 -16 -10 -8 0 -12 5 -9 10 3 6 10 10 16 10 5 0 9 -4 9 -10z"/>
<path d="M6002 4923 c1 -37 1 -37 5 -5 3 18 10 32 18 32 8 0 16 -14 18 -32 l5
-33 -2 35 c-1 28 -5 36 -23 38 -21 3 -23 -1 -21 -35z"/>
<path d="M5717 4926 c-7 -18 5 -33 26 -33 12 0 14 4 8 10 -7 7 -7 15 -1 22 6
7 3 11 -10 12 -10 1 -21 -4 -23 -11z m20 -11 c0 -8 -4 -12 -9 -9 -5 3 -6 10
-3 15 9 13 12 11 12 -6z"/>
<path d="M6149 4927 c7 -7 7 -15 1 -22 -6 -7 -3 -11 10 -12 20 -2 32 18 22 34
-4 5 -15 10 -25 10 -12 0 -14 -4 -8 -10z m26 -6 c3 -5 2 -12 -3 -15 -5 -3 -9
1 -9 9 0 17 3 19 12 6z"/>
<path d="M6256 4874 c-15 -20 -26 -37 -23 -40 2 -2 17 12 32 31 35 47 28 55
-9 9z"/>
<path d="M6136 4717 c-36 -48 -32 -58 4 -12 17 21 30 39 30 41 0 11 -12 1 -34
-29z"/>
<path d="M5985 4560 l-7 -39 -101 -4 -102 -3 111 -2 c84 -1 119 2 142 14 36
17 43 29 12 19 -24 -8 -26 7 -5 25 9 7 13 15 10 19 -3 3 -16 -8 -29 -24 l-23
-29 5 32 c6 46 -5 39 -13 -8z"/>
<path d="M5613 4503 c9 -2 23 -2 30 0 6 3 -1 5 -18 5 -16 0 -22 -2 -12 -5z"/>
<path d="M6133 4503 c9 -2 23 -2 30 0 6 3 -1 5 -18 5 -16 0 -22 -2 -12 -5z"/>
<path d="M5518 4493 c7 -3 16 -2 19 1 4 3 -2 6 -13 5 -11 0 -14 -3 -6 -6z"/>
<path d="M6238 4493 c7 -3 16 -2 19 1 4 3 -2 6 -13 5 -11 0 -14 -3 -6 -6z"/>
<path d="M5448 4483 c7 -3 16 -2 19 1 4 3 -2 6 -13 5 -11 0 -14 -3 -6 -6z"/>
<path d="M6308 4483 c7 -3 16 -2 19 1 4 3 -2 6 -13 5 -11 0 -14 -3 -6 -6z"/>
<path d="M5912 4390 c0 -33 2 -39 7 -21 9 35 29 37 34 4 4 -27 4 -27 6 5 1 25
-3 32 -18 32 -11 0 -22 6 -24 13 -3 6 -5 -8 -5 -33z"/>
<path d="M6043 4390 c0 -25 2 -35 4 -22 2 12 2 32 0 45 -2 12 -4 2 -4 -23z"/>
<path d="M6073 4390 c0 -25 2 -35 4 -22 2 12 2 32 0 45 -2 12 -4 2 -4 -23z"/>
<path d="M5638 4415 c-8 -9 6 -58 18 -62 5 -2 9 11 8 29 -1 30 -13 46 -26 33z"/>
<path d="M5404 4395 c-4 -8 -4 -22 0 -30 6 -16 36 -21 36 -5 0 5 -7 7 -15 4
-11 -4 -15 0 -15 16 0 16 4 20 15 16 8 -3 15 -1 15 4 0 16 -30 11 -36 -5z"/>
<path d="M5461 4378 c0 -32 1 -32 10 -8 6 13 15 28 22 32 8 5 4 8 -10 8 -19 0
-23 -5 -22 -32z"/>
<path d="M5514 4396 c-13 -33 23 -65 41 -36 3 5 0 7 -8 4 -8 -3 -18 -1 -22 5
-3 7 3 11 15 11 13 0 20 5 18 13 -7 18 -37 21 -44 3z m33 -2 c-3 -3 -12 -4
-19 -1 -8 3 -5 6 6 6 11 1 17 -2 13 -5z"/>
<path d="M5589 4405 c-1 -3 -2 -8 -3 -12 -1 -5 -4 -13 -8 -19 -9 -14 0 -24 24
-24 13 0 18 8 18 30 0 20 -5 30 -15 30 -8 0 -16 -2 -16 -5z m21 -35 c0 -5 -4
-10 -10 -10 -5 0 -10 5 -10 10 0 6 5 10 10 10 6 0 10 -4 10 -10z"/>
<path d="M5684 4396 c-13 -33 23 -65 41 -36 3 5 0 7 -8 4 -8 -3 -18 -1 -22 5
-3 7 3 11 15 11 13 0 20 5 18 13 -7 18 -37 21 -44 3z m33 -2 c-3 -3 -12 -4
-19 -1 -8 3 -5 6 6 6 11 1 17 -2 13 -5z"/>
<path d="M5755 4400 c-8 -13 -8 -12 20 -29 19 -12 19 -12 -4 -7 -17 3 -21 2
-13 -6 17 -17 42 -1 38 24 -3 25 -30 36 -41 18z"/>
<path d="M5854 4395 c-4 -8 -4 -22 0 -30 6 -16 36 -21 36 -5 0 5 -7 7 -15 4
-11 -4 -15 0 -15 16 0 16 4 20 15 16 8 -3 15 -1 15 4 0 16 -30 11 -36 -5z"/>
<path d="M5989 4405 c-1 -3 -2 -8 -3 -12 -1 -5 -4 -13 -8 -19 -9 -14 0 -24 24
-24 13 0 18 8 18 30 0 20 -5 30 -15 30 -8 0 -16 -2 -16 -5z m21 -35 c0 -5 -4
-10 -10 -10 -5 0 -10 5 -10 10 0 6 5 10 10 10 6 0 10 -4 10 -10z"/>
<path d="M6104 4396 c-13 -33 23 -65 41 -36 3 5 0 7 -8 4 -8 -3 -18 -1 -22 5
-3 7 3 11 15 11 13 0 20 5 18 13 -7 18 -37 21 -44 3z m33 -2 c-3 -3 -12 -4
-19 -1 -8 3 -5 6 6 6 11 1 17 -2 13 -5z"/>
<path d="M6171 4378 c1 -30 2 -30 8 -9 9 35 29 37 34 4 4 -27 4 -27 6 5 1 28
-2 32 -24 32 -22 0 -25 -4 -24 -32z"/>
<path d="M6244 4397 c-10 -26 3 -62 22 -62 15 0 20 8 22 38 3 32 0 37 -18 37
-11 0 -23 -6 -26 -13z m31 -17 c0 -7 -6 -15 -12 -17 -8 -3 -13 4 -13 17 0 13
5 20 13 18 6 -3 12 -11 12 -18z m2 -36 c-3 -3 -12 -4 -19 -1 -8 3 -5 6 6 6 11
1 17 -2 13 -5z"/>
<path d="M6314 4396 c-13 -33 23 -65 41 -36 3 5 0 7 -8 4 -8 -3 -18 -1 -22 5
-3 7 3 11 15 11 13 0 20 5 18 13 -7 18 -37 21 -44 3z m33 -2 c-3 -3 -12 -4
-19 -1 -8 3 -5 6 6 6 11 1 17 -2 13 -5z"/>
<path d="M6574 4378 c1 -14 -11 -30 -33 -45 -19 -13 -29 -23 -23 -23 6 0 24
12 41 26 30 25 39 48 23 58 -5 3 -8 -5 -8 -16z"/>
<path d="M5237 4319 c7 -7 15 -10 18 -7 3 3 -2 9 -12 12 -14 6 -15 5 -6 -5z"/>
<path d="M5338 4283 c7 -3 16 -2 19 1 4 3 -2 6 -13 5 -11 0 -14 -3 -6 -6z"/>
<path d="M6418 4283 c7 -3 16 -2 19 1 4 3 -2 6 -13 5 -11 0 -14 -3 -6 -6z"/>
<path d="M5388 4273 c7 -3 16 -2 19 1 4 3 -2 6 -13 5 -11 0 -14 -3 -6 -6z"/>
<path d="M6368 4273 c7 -3 16 -2 19 1 4 3 -2 6 -13 5 -11 0 -14 -3 -6 -6z"/>
<path d="M5435 4266 c6 -2 24 -7 40 -11 l30 -7 -30 -13 c-36 -16 -18 -20 21
-5 24 9 25 9 14 -5 -22 -26 -5 -26 20 0 13 14 21 27 18 31 -3 3 -32 7 -64 10
-33 2 -54 2 -49 0z"/>
<path d="M6308 4263 c6 -2 18 -2 25 0 6 3 1 5 -13 5 -14 0 -19 -2 -12 -5z"/>
<path d="M6233 4253 c9 -2 23 -2 30 0 6 3 -1 5 -18 5 -16 0 -22 -2 -12 -5z"/>
<path d="M5608 4243 c12 -2 32 -2 45 0 12 2 2 4 -23 4 -25 0 -35 -2 -22 -4z"/>
<path d="M5865 4233 c100 -3 133 -7 147 -19 16 -15 17 -14 15 5 -1 20 -5 21
-147 19 l-145 -2 130 -3z"/>
<path d="M5303 4177 c-17 -7 -35 -16 -40 -21 -9 -10 27 0 72 19 37 17 11 18
-32 2z"/>
<path d="M6100 4122 c0 -4 17 -24 37 -43 l37 -34 -33 43 c-33 42 -41 49 -41
34z"/>
<path d="M5105 4105 c-16 -8 -23 -14 -15 -14 8 0 29 6 45 14 17 7 23 13 15 13
-8 0 -28 -6 -45 -13z"/>
<path d="M4925 4039 c-22 -10 -29 -16 -15 -13 38 10 70 23 70 29 0 8 -13 5
-55 -16z"/>
<path d="M4153 3955 c0 -27 2 -38 4 -22 2 15 2 37 0 50 -2 12 -4 0 -4 -28z"/>
<path d="M4290 3991 c0 -5 -9 -11 -21 -14 -30 -8 -23 -61 9 -65 20 -3 22 1 22
42 0 25 -2 46 -5 46 -3 0 -5 -4 -5 -9z m0 -46 c0 -16 -6 -25 -15 -25 -15 0
-21 31 -8 43 13 14 23 6 23 -18z"/>
<path d="M4743 3977 c-51 -19 -51 -28 0 -11 26 9 47 18 47 20 0 6 -12 4 -47
-9z"/>
<path d="M6583 3945 c0 -27 2 -38 4 -22 2 15 2 37 0 50 -2 12 -4 0 -4 -28z"/>
<path d="M3993 3945 c0 -22 2 -30 4 -17 2 12 2 30 0 40 -3 9 -5 -1 -4 -23z"/>
<path d="M4021 3943 c1 -35 2 -36 8 -9 9 42 29 44 34 4 l5 -33 -2 35 c-1 28
-5 36 -23 38 -21 3 -23 -1 -22 -35z"/>
<path d="M4097 3973 c-4 -3 -7 -17 -7 -30 0 -26 26 -41 42 -25 8 8 5 9 -11 5
-18 -4 -21 -1 -21 22 0 22 4 26 20 22 11 -3 18 -1 14 4 -6 11 -28 12 -37 2z"/>
<path d="M4183 3948 c1 -26 7 -34 25 -36 20 -3 22 1 20 35 -1 37 -1 37 -5 6
-5 -42 -30 -43 -37 -3 -6 30 -6 30 -3 -2z"/>
<path d="M4327 3974 c-4 -4 -7 -18 -7 -31 0 -27 26 -41 43 -24 9 9 8 11 -4 6
-10 -4 -20 -2 -24 4 -3 7 3 11 15 11 15 0 20 5 18 17 -3 19 -29 29 -41 17z
m33 -14 c0 -5 -7 -10 -16 -10 -8 0 -12 5 -9 10 3 6 10 10 16 10 5 0 9 -4 9
-10z"/>
<path d="M6248 3954 c24 -36 52 -61 52 -47 0 5 -16 25 -37 44 l-36 34 21 -31z"/>
<path d="M6423 3935 c0 -22 2 -30 4 -17 2 12 2 30 0 40 -3 9 -5 -1 -4 -23z"/>
<path d="M6452 3933 c1 -37 1 -37 5 -5 3 18 10 32 18 32 8 0 16 -14 18 -32 l5
-33 -2 35 c-1 28 -5 36 -23 38 -21 3 -23 -1 -21 -35z"/>
<path d="M6527 3963 c-4 -3 -7 -17 -7 -30 0 -26 26 -41 42 -25 8 8 5 9 -11 5
-18 -4 -21 -1 -21 22 0 22 4 26 20 22 11 -3 18 -1 14 4 -6 11 -28 12 -37 2z"/>
<path d="M6613 3938 c1 -26 7 -34 25 -36 20 -3 22 1 20 35 -1 37 -1 37 -5 6
-5 -42 -30 -43 -37 -3 -6 30 -6 30 -3 -2z"/>
<path d="M3927 3946 c-7 -18 5 -33 26 -33 12 0 14 4 8 10 -7 7 -7 15 -1 22 6
7 3 11 -10 12 -10 1 -21 -4 -23 -11z m20 -11 c0 -8 -4 -12 -9 -9 -5 3 -6 10
-3 15 9 13 12 11 12 -6z"/>
<path d="M4399 3947 c7 -7 7 -15 1 -22 -6 -7 -3 -11 10 -12 20 -2 32 18 22 34
-4 5 -15 10 -25 10 -12 0 -14 -4 -8 -10z m26 -6 c3 -5 2 -12 -3 -15 -5 -3 -9
1 -9 9 0 17 3 19 12 6z"/>
<path d="M6357 3936 c-7 -18 5 -33 26 -33 12 0 14 4 8 10 -7 7 -7 15 -1 22 6
7 3 11 -10 12 -10 1 -21 -4 -23 -11z m20 -11 c0 -8 -4 -12 -9 -9 -5 3 -6 10
-3 15 9 13 12 11 12 -6z"/>
<path d="M4543 3908 c-18 -6 -33 -15 -33 -19 0 -4 15 -2 33 5 17 7 39 16 47
19 29 10 -12 6 -47 -5z"/>
<path d="M6825 3910 c-2 -3 5 -7 16 -7 10 -1 19 2 19 6 0 9 -29 10 -35 1z"/>
<path d="M4360 3843 c-25 -9 -40 -18 -34 -20 11 -4 84 24 84 32 0 3 -1 5 -2 4
-2 0 -23 -8 -48 -16z"/>
<path d="M6390 3793 c18 -24 36 -41 39 -38 3 3 -12 22 -33 43 l-39 37 33 -42z"/>
<path d="M4173 3777 c-17 -7 -35 -16 -40 -21 -9 -10 27 0 72 19 37 17 11 18
-32 2z"/>
<path d="M3975 3705 c-16 -8 -23 -14 -15 -14 8 0 29 6 45 14 17 7 23 13 15 13
-8 0 -28 -6 -45 -13z"/>
<path d="M6520 3645 c19 -19 36 -35 37 -35 2 0 -8 16 -23 35 -14 19 -31 35
-37 35 -6 0 4 -16 23 -35z"/>
<path d="M3790 3639 c-26 -11 -33 -17 -18 -14 36 7 78 23 78 30 0 8 -11 5 -60
-16z"/>
<path d="M3602 3573 c-24 -8 -41 -17 -39 -19 4 -5 97 26 97 32 0 6 -11 4 -58
-13z"/>
<path d="M6635 3520 c4 -8 15 -23 24 -33 14 -17 13 -17 -14 -7 -28 9 -29 9
-11 -5 11 -8 27 -15 35 -15 14 0 14 -1 1 -10 -8 -5 -10 -10 -5 -10 25 0 35 17
29 48 -4 18 -11 35 -16 38 -6 4 -7 -3 -3 -17 l7 -24 -27 25 c-16 14 -25 18
-20 10z"/>
<path d="M3413 3508 c-18 -6 -33 -15 -33 -19 0 -4 15 -2 33 5 17 7 39 16 47
19 29 10 -12 6 -47 -5z"/>
<path d="M2883 3463 c31 -2 83 -2 115 0 31 2 5 3 -58 3 -63 0 -89 -1 -57 -3z"/>
<path d="M6898 3463 c23 -2 59 -2 80 0 20 2 1 4 -43 4 -44 0 -61 -2 -37 -4z"/>
<path d="M2673 3453 c9 -2 23 -2 30 0 6 3 -1 5 -18 5 -16 0 -22 -2 -12 -5z"/>
<path d="M3193 3453 c9 -2 23 -2 30 0 6 3 -1 5 -18 5 -16 0 -22 -2 -12 -5z"/>
<path d="M6738 3453 c6 -2 18 -2 25 0 6 3 1 5 -13 5 -14 0 -19 -2 -12 -5z"/>
<path d="M7108 3453 c6 -2 18 -2 25 0 6 3 1 5 -13 5 -14 0 -19 -2 -12 -5z"/>
<path d="M2578 3443 c7 -3 16 -2 19 1 4 3 -2 6 -13 5 -11 0 -14 -3 -6 -6z"/>
<path d="M3298 3443 c7 -3 16 -2 19 1 4 3 -2 6 -13 5 -11 0 -14 -3 -6 -6z"/>
<path d="M2508 3433 c7 -3 16 -2 19 1 4 3 -2 6 -13 5 -11 0 -14 -3 -6 -6z"/>
<path d="M3368 3433 c7 -3 16 -2 19 1 4 3 -2 6 -13 5 -11 0 -14 -3 -6 -6z"/>
<path d="M4903 3365 c0 -27 2 -38 4 -22 2 15 2 37 0 50 -2 12 -4 0 -4 -28z"/>
<path d="M5040 3401 c0 -5 -9 -11 -21 -14 -30 -8 -23 -61 9 -65 20 -3 22 1 22
42 0 25 -2 46 -5 46 -3 0 -5 -4 -5 -9z m0 -46 c0 -16 -6 -25 -15 -25 -15 0
-21 31 -8 43 13 14 23 6 23 -18z"/>
<path d="M4743 3355 c0 -22 2 -30 4 -17 2 12 2 30 0 40 -3 9 -5 -1 -4 -23z"/>
<path d="M4772 3353 c1 -37 1 -37 5 -5 3 18 10 32 18 32 8 0 16 -14 18 -32 l5
-33 -2 35 c-1 28 -5 36 -23 38 -21 3 -23 -1 -21 -35z"/>
<path d="M4847 3383 c-4 -3 -7 -17 -7 -30 0 -26 26 -41 42 -25 8 8 5 9 -11 5
-18 -4 -21 -1 -21 22 0 22 4 26 20 22 11 -3 18 -1 14 4 -6 11 -28 12 -37 2z"/>
<path d="M4933 3358 c1 -26 7 -34 25 -36 20 -3 22 1 20 35 -1 37 -1 37 -5 6
-5 -42 -30 -43 -37 -3 -6 30 -6 30 -3 -2z"/>
<path d="M5077 3384 c-4 -4 -7 -18 -7 -31 0 -26 26 -41 42 -25 8 8 5 9 -11 5
-12 -3 -21 -1 -21 6 0 6 9 11 21 11 14 0 19 5 17 17 -3 19 -29 29 -41 17z m33
-14 c0 -5 -7 -10 -15 -10 -8 0 -15 5 -15 10 0 6 7 10 15 10 8 0 15 -4 15 -10z"/>
<path d="M2752 3340 c0 -33 2 -39 7 -21 9 35 29 37 34 4 4 -27 4 -27 6 5 1 25
-3 32 -18 32 -11 0 -22 6 -24 13 -3 6 -5 -8 -5 -33z"/>
<path d="M2883 3340 c0 -25 2 -35 4 -22 2 12 2 32 0 45 -2 12 -4 2 -4 -23z"/>
<path d="M2913 3340 c0 -25 2 -35 4 -22 2 12 2 32 0 45 -2 12 -4 2 -4 -23z"/>
<path d="M3453 3340 c0 -25 2 -35 4 -22 2 12 2 32 0 45 -2 12 -4 2 -4 -23z"/>
<path d="M2548 3365 c-8 -9 6 -58 18 -62 5 -2 9 11 8 29 -1 30 -13 46 -26 33z"/>
<path d="M4677 3356 c-7 -18 5 -33 26 -33 12 0 14 4 8 10 -7 7 -7 15 -1 22 6
7 3 11 -10 12 -10 1 -21 -4 -23 -11z m20 -11 c0 -8 -4 -12 -9 -9 -5 3 -6 10
-3 15 9 13 12 11 12 -6z"/>
<path d="M5149 3357 c7 -7 7 -15 1 -22 -6 -7 -3 -11 10 -12 20 -2 32 18 22 34
-4 5 -15 10 -25 10 -12 0 -14 -4 -8 -10z m26 -6 c3 -5 2 -12 -3 -15 -5 -3 -9
1 -9 9 0 17 3 19 12 6z"/>
<path d="M2415 3350 c-8 -13 -8 -12 20 -29 19 -12 19 -12 -4 -7 -17 3 -21 2
-13 -6 17 -17 42 -1 38 24 -3 25 -30 36 -41 18z m32 -6 c-3 -3 -12 -4 -19 -1
-8 3 -5 6 6 6 11 1 17 -2 13 -5z"/>
<path d="M2484 3346 c-13 -33 23 -65 41 -36 3 5 0 7 -8 4 -8 -3 -18 -1 -22 5
-3 7 3 11 15 11 13 0 20 5 18 13 -7 18 -37 21 -44 3z m33 -2 c-3 -3 -12 -4
-19 -1 -8 3 -5 6 6 6 11 1 17 -2 13 -5z"/>
<path d="M2595 3350 c-8 -13 -8 -12 20 -29 19 -12 19 -12 -4 -7 -17 3 -21 2
-13 -6 17 -17 42 -1 38 24 -3 25 -30 36 -41 18z"/>
<path d="M2694 3345 c-4 -8 -4 -22 0 -30 6 -16 36 -21 36 -5 0 5 -7 7 -15 4
-11 -4 -15 0 -15 16 0 16 4 20 15 16 8 -3 15 -1 15 4 0 16 -30 11 -36 -5z"/>
<path d="M2829 3355 c-1 -3 -2 -8 -3 -12 -1 -5 -4 -13 -8 -19 -9 -14 0 -24 24
-24 13 0 18 8 18 30 0 20 -5 30 -15 30 -8 0 -16 -2 -16 -5z m21 -35 c0 -5 -4
-10 -10 -10 -5 0 -10 5 -10 10 0 6 5 10 10 10 6 0 10 -4 10 -10z"/>
<path d="M2944 3346 c-13 -33 23 -65 41 -36 3 5 0 7 -8 4 -8 -3 -18 -1 -22 5
-3 7 3 11 15 11 13 0 20 5 18 13 -7 18 -37 21 -44 3z m33 -2 c-3 -3 -12 -4
-19 -1 -8 3 -5 6 6 6 11 1 17 -2 13 -5z"/>
<path d="M3011 3328 c1 -30 2 -30 8 -9 9 35 29 37 34 4 4 -27 4 -27 6 5 1 28
-2 32 -24 32 -22 0 -25 -4 -24 -32z"/>
<path d="M3084 3347 c-10 -26 3 -62 22 -62 15 0 20 8 22 38 3 32 0 37 -18 37
-11 0 -23 -6 -26 -13z m31 -17 c0 -7 -6 -15 -12 -17 -8 -3 -13 4 -13 17 0 13
5 20 13 18 6 -3 12 -11 12 -18z m2 -36 c-3 -3 -12 -4 -19 -1 -8 3 -5 6 6 6 11
1 17 -2 13 -5z"/>
<path d="M3154 3346 c-13 -33 23 -65 41 -36 3 5 0 7 -8 4 -8 -3 -18 -1 -22 5
-3 7 3 11 15 11 13 0 20 5 18 13 -7 18 -37 21 -44 3z m33 -2 c-3 -3 -12 -4
-19 -1 -8 3 -5 6 6 6 11 1 17 -2 13 -5z"/>
<path d="M3254 3347 c-10 -26 3 -62 22 -62 15 0 20 8 22 38 3 32 0 37 -18 37
-11 0 -23 -6 -26 -13z m31 -17 c0 -7 -6 -15 -12 -17 -8 -3 -13 4 -13 17 0 13
5 20 13 18 6 -3 12 -11 12 -18z m2 -36 c-3 -3 -12 -4 -19 -1 -8 3 -5 6 6 6 11
1 17 -2 13 -5z"/>
<path d="M3324 3346 c-9 -24 4 -48 23 -44 12 2 18 12 18 28 0 29 -32 41 -41
16z m36 -16 c0 -11 -7 -20 -15 -20 -8 0 -15 9 -15 20 0 11 7 20 15 20 8 0 15
-9 15 -20z"/>
<path d="M3399 3355 c-1 -3 -2 -8 -3 -12 -1 -5 -4 -13 -8 -19 -9 -14 0 -24 24
-24 13 0 18 8 18 30 0 20 -5 30 -15 30 -8 0 -16 -2 -16 -5z m21 -35 c0 -5 -4
-10 -10 -10 -5 0 -10 5 -10 10 0 6 5 10 10 10 6 0 10 -4 10 -10z"/>
<path d="M3634 3328 c1 -14 -11 -30 -33 -45 -19 -13 -29 -23 -23 -23 6 0 24
12 41 26 30 25 39 48 23 58 -5 3 -8 -5 -8 -16z"/>
<path d="M6279 3293 l-24 -28 28 24 c15 14 27 26 27 28 0 8 -8 1 -31 -24z"/>
<path d="M7580 3295 c13 -14 26 -25 28 -25 3 0 -5 11 -18 25 -13 14 -26 25
-28 25 -3 0 5 -11 18 -25z"/>
<path d="M3760 3300 c36 -12 72 -12 65 0 -3 6 -25 10 -48 9 -36 -1 -38 -2 -17
-9z"/>
<path d="M3963 3293 c15 -2 37 -2 50 0 12 2 0 4 -28 4 -27 0 -38 -2 -22 -4z"/>
<path d="M6858 3295 c-8 -9 6 -58 18 -62 5 -2 9 11 8 29 -1 30 -13 46 -26 33z"/>
<path d="M4163 3283 c15 -2 39 -2 55 0 15 2 2 4 -28 4 -30 0 -43 -2 -27 -4z"/>
<path d="M4363 3283 c15 -2 37 -2 50 0 12 2 0 4 -28 4 -27 0 -38 -2 -22 -4z"/>
<path d="M6474 3277 c-10 -26 3 -62 22 -62 15 0 20 8 22 38 3 32 0 37 -18 37
-11 0 -23 -6 -26 -13z m31 -17 c0 -7 -6 -15 -12 -17 -8 -3 -13 4 -13 17 0 13
5 20 13 18 6 -3 12 -11 12 -18z m2 -36 c-3 -3 -12 -4 -19 -1 -8 3 -5 6 6 6 11
1 17 -2 13 -5z"/>
<path d="M6544 3276 c-13 -33 23 -65 41 -36 3 5 0 7 -8 4 -8 -3 -18 -1 -22 5
-3 7 3 11 15 11 13 0 20 5 18 13 -7 18 -37 21 -44 3z m33 -2 c-3 -3 -12 -4
-19 -1 -8 3 -5 6 6 6 11 1 17 -2 13 -5z"/>
<path d="M6611 3258 c1 -30 2 -30 8 -9 9 35 29 37 34 4 4 -27 4 -27 6 5 1 28
-2 32 -24 32 -22 0 -25 -4 -24 -32z"/>
<path d="M6684 3276 c-13 -33 23 -65 41 -36 3 5 0 7 -8 4 -8 -3 -18 -1 -22 5
-3 7 3 11 15 11 13 0 20 5 18 13 -7 18 -37 21 -44 3z m33 -2 c-3 -3 -12 -4
-19 -1 -8 3 -5 6 6 6 11 1 17 -2 13 -5z"/>
<path d="M6751 3258 c0 -32 1 -32 10 -8 6 13 15 28 22 32 8 5 4 8 -10 8 -19 0
-23 -5 -22 -32z"/>
<path d="M6809 3285 c-1 -3 -2 -8 -3 -12 -1 -5 -4 -13 -8 -19 -9 -14 0 -24 24
-24 13 0 18 8 18 30 0 20 -5 30 -15 30 -8 0 -16 -2 -16 -5z m21 -35 c0 -5 -4
-10 -10 -10 -5 0 -10 5 -10 10 0 6 5 10 10 10 6 0 10 -4 10 -10z"/>
<path d="M6904 3276 c-13 -33 23 -65 41 -36 3 5 0 7 -8 4 -8 -3 -18 -1 -22 5
-3 7 3 11 15 11 13 0 20 5 18 13 -7 18 -37 21 -44 3z m33 -2 c-3 -3 -12 -4
-19 -1 -8 3 -5 6 6 6 11 1 17 -2 13 -5z"/>
<path d="M6975 3280 c-8 -13 -8 -12 20 -29 19 -12 19 -12 -4 -7 -17 3 -21 2
-13 -6 17 -17 42 -1 38 24 -3 25 -30 36 -41 18z"/>
<path d="M7075 3280 c-8 -13 -8 -12 20 -29 19 -12 19 -12 -4 -7 -17 3 -21 2
-13 -6 17 -17 42 -1 38 24 -3 25 -30 36 -41 18z"/>
<path d="M7149 3285 c-1 -3 -2 -8 -3 -12 -1 -5 -4 -13 -8 -19 -9 -14 0 -24 24
-24 13 0 18 8 18 30 0 20 -5 30 -15 30 -8 0 -16 -2 -16 -5z m21 -35 c0 -5 -4
-10 -10 -10 -5 0 -10 5 -10 10 0 6 5 10 10 10 6 0 10 -4 10 -10z"/>
<path d="M7201 3258 c1 -29 2 -30 8 -9 9 35 29 37 34 4 l4 -28 2 28 c1 34 28
36 34 2 4 -23 4 -23 3 2 -1 25 -5 28 -43 31 -43 3 -43 3 -42 -30z"/>
<path d="M7314 3276 c-13 -33 23 -65 41 -36 3 5 0 7 -8 4 -8 -3 -18 -1 -22 5
-3 7 3 11 15 11 13 0 20 5 18 13 -7 18 -37 21 -44 3z m33 -2 c-3 -3 -12 -4
-19 -1 -8 3 -5 6 6 6 11 1 17 -2 13 -5z"/>
<path d="M4563 3273 c15 -2 39 -2 55 0 15 2 2 4 -28 4 -30 0 -43 -2 -27 -4z"/>
<path d="M4745 3270 c3 -5 25 -10 48 -9 36 1 38 2 17 9 -36 12 -72 12 -65 0z"/>
<path d="M4963 3263 c15 -2 37 -2 50 0 12 2 0 4 -28 4 -27 0 -38 -2 -22 -4z"/>
<path d="M6170 3261 c0 -6 10 -13 23 -18 19 -6 17 -8 -18 -14 l-40 -6 40 -2
c36 -2 38 -3 18 -13 -13 -6 -23 -15 -23 -20 0 -5 10 -2 22 6 29 20 36 20 40
-1 3 -11 6 -5 9 14 3 18 3 30 -1 28 -4 -2 -21 5 -38 15 -18 11 -32 16 -32 11z"/>
<path d="M5163 3253 c15 -2 39 -2 55 0 15 2 2 4 -28 4 -30 0 -43 -2 -27 -4z"/>
<path d="M5341 3256 c11 -10 89 -15 89 -6 0 5 -21 10 -47 10 -25 0 -44 -2 -42
-4z"/>
<path d="M7616 3247 c3 -10 9 -15 12 -12 3 3 0 11 -7 18 -10 9 -11 8 -5 -6z"/>
<path d="M5563 3243 c15 -2 37 -2 50 0 12 2 0 4 -28 4 -27 0 -38 -2 -22 -4z"/>
<path d="M5740 3240 c0 -5 21 -10 47 -10 55 0 54 5 -4 14 -27 4 -43 2 -43 -4z"/>
<path d="M2398 3233 c7 -3 16 -2 19 1 4 3 -2 6 -13 5 -11 0 -14 -3 -6 -6z"/>
<path d="M3478 3233 c7 -3 16 -2 19 1 4 3 -2 6 -13 5 -11 0 -14 -3 -6 -6z"/>
<path d="M5963 3233 c15 -2 37 -2 50 0 12 2 0 4 -28 4 -27 0 -38 -2 -22 -4z"/>
<path d="M2448 3223 c7 -3 16 -2 19 1 4 3 -2 6 -13 5 -11 0 -14 -3 -6 -6z"/>
<path d="M3428 3223 c7 -3 16 -2 19 1 4 3 -2 6 -13 5 -11 0 -14 -3 -6 -6z"/>
<path d="M2498 3213 c6 -2 18 -2 25 0 6 3 1 5 -13 5 -14 0 -19 -2 -12 -5z"/>
<path d="M3368 3213 c6 -2 18 -2 25 0 6 3 1 5 -13 5 -14 0 -19 -2 -12 -5z"/>
<path d="M7632 3195 c0 -16 2 -22 5 -12 2 9 2 23 0 30 -3 6 -5 -1 -5 -18z"/>
<path d="M2573 3203 c9 -2 23 -2 30 0 6 3 -1 5 -18 5 -16 0 -22 -2 -12 -5z"/>
<path d="M3293 3203 c9 -2 23 -2 30 0 6 3 -1 5 -18 5 -16 0 -22 -2 -12 -5z"/>
<path d="M2668 3193 c12 -2 32 -2 45 0 12 2 2 4 -23 4 -25 0 -35 -2 -22 -4z"/>
<path d="M3178 3193 c12 -2 32 -2 45 0 12 2 2 4 -23 4 -25 0 -35 -2 -22 -4z"/>
<path d="M2873 3183 c43 -2 110 -2 150 0 40 1 5 3 -78 3 -82 0 -115 -2 -72 -3z"/>
<path d="M6582 3150 c0 -33 2 -39 7 -21 9 35 29 37 34 4 4 -27 4 -27 6 5 1 25
-3 32 -18 32 -11 0 -22 6 -24 13 -3 6 -5 -8 -5 -33z"/>
<path d="M6713 3150 c0 -25 2 -35 4 -22 2 12 2 32 0 45 -2 12 -4 2 -4 -23z"/>
<path d="M6743 3150 c0 -25 2 -35 4 -22 2 12 2 32 0 45 -2 12 -4 2 -4 -23z"/>
<path d="M6524 3155 c-4 -8 -4 -22 0 -30 6 -16 36 -21 36 -5 0 5 -7 7 -15 4
-11 -4 -15 0 -15 16 0 16 4 20 15 16 8 -3 15 -1 15 4 0 16 -30 11 -36 -5z"/>
<path d="M6659 3165 c-1 -3 -2 -8 -3 -12 -1 -5 -4 -13 -8 -19 -9 -14 0 -24 24
-24 13 0 18 8 18 30 0 20 -5 30 -15 30 -8 0 -16 -2 -16 -5z m21 -35 c0 -5 -4
-10 -10 -10 -5 0 -10 5 -10 10 0 6 5 10 10 10 6 0 10 -4 10 -10z"/>
<path d="M6774 3156 c-13 -33 23 -65 41 -36 3 5 0 7 -8 4 -8 -3 -18 -1 -22 5
-3 7 3 11 15 11 13 0 20 5 18 13 -7 18 -37 21 -44 3z m33 -2 c-3 -3 -12 -4
-19 -1 -8 3 -5 6 6 6 11 1 17 -2 13 -5z"/>
<path d="M6841 3138 c1 -30 2 -30 8 -9 9 35 29 37 34 4 4 -27 4 -27 6 5 1 28
-2 32 -24 32 -22 0 -25 -4 -24 -32z"/>
<path d="M6914 3157 c-10 -26 3 -62 22 -62 15 0 20 8 22 38 3 32 0 37 -18 37
-11 0 -23 -6 -26 -13z m31 -17 c0 -7 -6 -15 -12 -17 -8 -3 -13 4 -13 17 0 13
5 20 13 18 6 -3 12 -11 12 -18z m2 -36 c-3 -3 -12 -4 -19 -1 -8 3 -5 6 6 6 11
1 17 -2 13 -5z"/>
<path d="M6984 3156 c-13 -33 23 -65 41 -36 3 5 0 7 -8 4 -8 -3 -18 -1 -22 5
-3 7 3 11 15 11 13 0 20 5 18 13 -7 18 -37 21 -44 3z m33 -2 c-3 -3 -12 -4
-19 -1 -8 3 -5 6 6 6 11 1 17 -2 13 -5z"/>
<path d="M7080 3128 c0 -24 4 -38 8 -32 4 6 15 13 25 17 26 10 18 51 -10 55
-21 3 -23 -1 -23 -40z m40 12 c0 -21 -15 -27 -25 -10 -7 12 2 30 16 30 5 0 9
-9 9 -20z"/>
<path d="M7159 3165 c-1 -3 -2 -8 -3 -12 -1 -5 -4 -13 -8 -19 -9 -14 0 -24 24
-24 13 0 18 8 18 30 0 20 -5 30 -15 30 -8 0 -16 -2 -16 -5z m21 -35 c0 -5 -4
-10 -10 -10 -5 0 -10 5 -10 10 0 6 5 10 10 10 6 0 10 -4 10 -10z"/>
<path d="M7214 3157 c-10 -26 3 -62 22 -62 15 0 20 8 22 38 3 32 0 37 -18 37
-11 0 -23 -6 -26 -13z m31 -17 c0 -7 -6 -15 -12 -17 -8 -3 -13 4 -13 17 0 13
5 20 13 18 6 -3 12 -11 12 -18z m2 -36 c-3 -3 -12 -4 -19 -1 -8 3 -5 6 6 6 11
1 17 -2 13 -5z"/>
<path d="M7284 3156 c-13 -33 23 -65 41 -36 3 5 0 7 -8 4 -8 -3 -18 -1 -22 5
-3 7 3 11 15 11 13 0 20 5 18 13 -7 18 -37 21 -44 3z m33 -2 c-3 -3 -12 -4
-19 -1 -8 3 -5 6 6 6 11 1 17 -2 13 -5z"/>
<path d="M7616 3143 c-6 -14 -5 -15 5 -6 7 7 10 15 7 18 -3 3 -9 -2 -12 -12z"/>
<path d="M6280 3095 c13 -14 26 -25 28 -25 3 0 -5 11 -18 25 -13 14 -26 25
-28 25 -3 0 5 -11 18 -25z"/>
<path d="M6350 3045 c0 -7 61 -37 66 -33 2 3 -12 12 -31 21 -19 9 -35 15 -35
12z"/>
<path d="M7480 3030 c-19 -11 -31 -19 -27 -20 11 0 67 29 67 35 0 7 -1 7 -40
-15z"/>
<path d="M7375 2990 c-13 -6 -15 -9 -5 -9 8 0 22 4 30 9 18 12 2 12 -25 0z"/>
<path d="M6558 2963 c7 -3 16 -2 19 1 4 3 -2 6 -13 5 -11 0 -14 -3 -6 -6z"/>
<path d="M7298 2963 c7 -3 16 -2 19 1 4 3 -2 6 -13 5 -11 0 -14 -3 -6 -6z"/>
<path d="M6608 2953 c7 -3 16 -2 19 1 4 3 -2 6 -13 5 -11 0 -14 -3 -6 -6z"/>
<path d="M7248 2953 c7 -3 16 -2 19 1 4 3 -2 6 -13 5 -11 0 -14 -3 -6 -6z"/>
<path d="M6658 2943 c6 -2 18 -2 25 0 6 3 1 5 -13 5 -14 0 -19 -2 -12 -5z"/>
<path d="M7188 2943 c6 -2 18 -2 25 0 6 3 1 5 -13 5 -14 0 -19 -2 -12 -5z"/>
<path d="M6733 2933 c9 -2 25 -2 35 0 9 3 1 5 -18 5 -19 0 -27 -2 -17 -5z"/>
<path d="M7103 2933 c9 -2 25 -2 35 0 9 3 1 5 -18 5 -19 0 -27 -2 -17 -5z"/>
<path d="M6883 2923 c32 -2 81 -2 110 0 29 2 3 3 -58 3 -60 0 -84 -1 -52 -3z"/>
<path d="M2923 2273 c32 -2 81 -2 110 0 29 2 3 3 -58 3 -60 0 -84 -1 -52 -3z"/>
<path d="M2723 2263 c9 -2 23 -2 30 0 6 3 -1 5 -18 5 -16 0 -22 -2 -12 -5z"/>
<path d="M3203 2263 c9 -2 23 -2 30 0 6 3 -1 5 -18 5 -16 0 -22 -2 -12 -5z"/>
<path d="M2628 2253 c7 -3 16 -2 19 1 4 3 -2 6 -13 5 -11 0 -14 -3 -6 -6z"/>
<path d="M3308 2253 c6 -2 18 -2 25 0 6 3 1 5 -13 5 -14 0 -19 -2 -12 -5z"/>
<path d="M3388 2243 c7 -3 16 -2 19 1 4 3 -2 6 -13 5 -11 0 -14 -3 -6 -6z"/>
<path d="M2612 2160 c0 -33 2 -39 7 -21 9 35 29 37 34 4 4 -27 4 -27 6 5 1 25
-3 32 -18 32 -11 0 -22 6 -24 13 -3 6 -5 -8 -5 -33z"/>
<path d="M2952 2160 c0 -33 2 -39 7 -21 9 35 29 37 34 4 4 -27 4 -27 6 5 1 25
-3 32 -18 32 -11 0 -22 6 -24 13 -3 6 -5 -8 -5 -33z"/>
<path d="M3083 2160 c0 -25 2 -35 4 -22 2 12 2 32 0 45 -2 12 -4 2 -4 -23z"/>
<path d="M3113 2160 c0 -25 2 -35 4 -22 2 12 2 32 0 45 -2 12 -4 2 -4 -23z"/>
<path d="M2545 2170 c-8 -13 -8 -12 20 -29 19 -12 19 -12 -4 -7 -17 3 -21 2
-13 -6 17 -17 42 -1 38 24 -3 25 -30 36 -41 18z"/>
<path d="M2689 2175 c-1 -3 -2 -8 -3 -12 -1 -5 -4 -13 -8 -19 -9 -14 0 -24 24
-24 13 0 18 8 18 30 0 20 -5 30 -15 30 -8 0 -16 -2 -16 -5z m21 -35 c0 -5 -4
-10 -10 -10 -5 0 -10 5 -10 10 0 6 5 10 10 10 6 0 10 -4 10 -10z"/>
<path d="M2741 2148 c0 -32 1 -32 10 -8 6 13 15 28 22 32 8 5 4 8 -10 8 -19 0
-23 -5 -22 -32z"/>
<path d="M2794 2166 c-13 -33 23 -65 41 -36 3 5 0 7 -8 4 -8 -3 -18 -1 -22 5
-3 7 3 11 15 11 13 0 20 5 18 13 -7 18 -37 21 -44 3z m33 -2 c-3 -3 -12 -4
-19 -1 -8 3 -5 6 6 6 11 1 17 -2 13 -5z"/>
<path d="M2894 2165 c-4 -8 -4 -22 0 -30 6 -16 36 -21 36 -5 0 5 -7 7 -15 4
-11 -4 -15 0 -15 16 0 16 4 20 15 16 8 -3 15 -1 15 4 0 16 -30 11 -36 -5z"/>
<path d="M3029 2175 c-1 -3 -2 -8 -3 -12 -1 -5 -4 -13 -8 -19 -9 -14 0 -24 24
-24 13 0 18 8 18 30 0 20 -5 30 -15 30 -8 0 -16 -2 -16 -5z m21 -35 c0 -5 -4
-10 -10 -10 -5 0 -10 5 -10 10 0 6 5 10 10 10 6 0 10 -4 10 -10z"/>
<path d="M3144 2166 c-13 -33 23 -65 41 -36 3 5 0 7 -8 4 -8 -3 -18 -1 -22 5
-3 7 3 11 15 11 13 0 20 5 18 13 -7 18 -37 21 -44 3z m33 -2 c-3 -3 -12 -4
-19 -1 -8 3 -5 6 6 6 11 1 17 -2 13 -5z"/>
<path d="M3211 2148 c1 -30 2 -30 8 -9 9 35 29 37 34 4 4 -27 4 -27 6 5 1 28
-2 32 -24 32 -22 0 -25 -4 -24 -32z"/>
<path d="M3284 2167 c-10 -26 3 -62 22 -62 15 0 20 8 22 38 3 32 0 37 -18 37
-11 0 -23 -6 -26 -13z m31 -17 c0 -7 -6 -15 -12 -17 -8 -3 -13 4 -13 17 0 13
5 20 13 18 6 -3 12 -11 12 -18z m2 -36 c-3 -3 -12 -4 -19 -1 -8 3 -5 6 6 6 11
1 17 -2 13 -5z"/>
<path d="M3354 2166 c-13 -33 23 -65 41 -36 3 5 0 7 -8 4 -8 -3 -18 -1 -22 5
-3 7 3 11 15 11 13 0 20 5 18 13 -7 18 -37 21 -44 3z m33 -2 c-3 -3 -12 -4
-19 -1 -8 3 -5 6 6 6 11 1 17 -2 13 -5z"/>
<path d="M2099 2093 c-13 -16 -12 -17 4 -4 9 7 17 15 17 17 0 8 -8 3 -21 -13z"/>
<path d="M3860 2085 c11 -13 -89 -15 -888 -15 -845 0 -900 -1 -913 -17 -12
-16 -12 -17 2 -6 23 18 1814 19 1838 1 9 -7 3 2 -13 20 -30 32 -49 45 -26 17z"/>
<path d="M4763 2025 c0 -27 2 -38 4 -22 2 15 2 37 0 50 -2 12 -4 0 -4 -28z"/>
<path d="M4900 2061 c0 -5 -9 -11 -21 -14 -30 -8 -23 -61 9 -65 20 -3 22 1 22
42 0 25 -2 46 -5 46 -3 0 -5 -4 -5 -9z m0 -46 c0 -16 -6 -25 -15 -25 -9 0 -15
9 -15 25 0 16 6 25 15 25 9 0 15 -9 15 -25z"/>
<path d="M6333 2063 c26 -2 67 -2 90 0 23 2 2 3 -48 3 -49 0 -68 -1 -42 -3z"/>
<path d="M6148 2053 c6 -2 18 -2 25 0 6 3 1 5 -13 5 -14 0 -19 -2 -12 -5z"/>
<path d="M6578 2053 c6 -2 18 -2 25 0 6 3 1 5 -13 5 -14 0 -19 -2 -12 -5z"/>
<path d="M4603 2015 c0 -22 2 -30 4 -17 2 12 2 30 0 40 -3 9 -5 -1 -4 -23z"/>
<path d="M4632 2013 c1 -37 1 -37 5 -5 3 18 10 32 18 32 8 0 16 -14 18 -32 l5
-33 -2 35 c-1 28 -5 36 -23 38 -21 3 -23 -1 -21 -35z"/>
<path d="M4707 2043 c-4 -3 -7 -17 -7 -30 0 -26 26 -41 42 -25 8 8 5 9 -11 5
-18 -4 -21 -1 -21 22 0 22 4 26 20 22 11 -3 18 -1 14 4 -6 11 -28 12 -37 2z"/>
<path d="M4793 2018 c1 -26 7 -34 25 -36 20 -3 22 1 20 35 -1 37 -1 37 -5 6
-5 -42 -30 -43 -37 -3 -6 30 -6 30 -3 -2z"/>
<path d="M4937 2044 c-4 -4 -7 -18 -7 -31 0 -26 26 -41 42 -25 8 8 5 9 -11 5
-12 -3 -21 -1 -21 6 0 6 9 11 21 11 14 0 19 5 17 17 -3 19 -29 29 -41 17z m33
-14 c0 -5 -7 -10 -15 -10 -8 0 -15 5 -15 10 0 6 7 10 15 10 8 0 15 -4 15 -10z"/>
<path d="M4537 2016 c-7 -18 5 -33 26 -33 12 0 14 4 8 10 -7 7 -7 15 -1 22 6
7 3 11 -10 12 -10 1 -21 -4 -23 -11z m20 -11 c0 -8 -4 -12 -9 -9 -5 3 -6 10
-3 15 9 13 12 11 12 -6z"/>
<path d="M5009 2017 c7 -7 7 -15 1 -22 -6 -7 -3 -11 10 -12 20 -2 32 18 22 34
-4 5 -15 10 -25 10 -12 0 -14 -4 -8 -10z m26 -6 c3 -5 2 -12 -3 -15 -5 -3 -9
1 -9 9 0 17 3 19 12 6z"/>
<path d="M3922 1985 c0 -16 2 -22 5 -12 2 9 2 23 0 30 -3 6 -5 -1 -5 -18z"/>
<path d="M2031 1984 c0 -11 3 -14 6 -6 3 7 2 16 -1 19 -3 4 -6 -2 -5 -13z"/>
<path d="M6140 1961 c0 -5 -9 -11 -21 -14 -29 -8 -22 -51 9 -55 20 -3 22 1 22
37 0 23 -2 41 -5 41 -3 0 -5 -4 -5 -9z m-5 -41 c0 -7 -6 -15 -12 -17 -8 -3
-13 4 -13 17 0 13 5 20 13 18 6 -3 12 -11 12 -18z"/>
<path d="M4005 1950 c11 -5 36 -8 55 -8 32 0 33 1 10 8 -14 4 -38 8 -55 8 -25
1 -27 -1 -10 -8z"/>
<path d="M6388 1955 c-3 -4 -3 -18 1 -33 6 -22 14 -27 44 -30 35 -2 37 -1 37
29 0 24 -4 30 -17 27 -10 -2 -17 -9 -16 -15 1 -6 -5 -17 -13 -24 -14 -11 -16
-9 -12 16 3 26 -11 43 -24 30z m72 -45 c0 -5 -4 -10 -10 -10 -5 0 -10 5 -10
10 0 6 5 10 10 10 6 0 10 -4 10 -10z"/>
<path d="M6488 1955 c-8 -9 6 -58 18 -62 5 -2 9 11 8 29 -1 30 -13 46 -26 33z"/>
<path d="M6728 1955 c-8 -9 6 -58 18 -62 5 -2 9 11 8 29 -1 30 -13 46 -26 33z"/>
<path d="M4195 1945 c23 -8 85 -10 85 -3 0 4 -21 8 -47 7 -27 0 -43 -2 -38 -4z"/>
<path d="M5895 1940 c-8 -13 -8 -12 20 -29 19 -12 19 -12 -4 -7 -17 3 -21 2
-13 -6 17 -17 42 -1 38 24 -3 25 -30 36 -41 18z"/>
<path d="M5964 1936 c-13 -33 23 -65 41 -36 3 5 0 7 -8 4 -8 -3 -18 -1 -22 5
-3 7 3 11 15 11 13 0 20 5 18 13 -7 18 -37 21 -44 3z m33 -2 c-3 -3 -12 -4
-19 -1 -8 3 -5 6 6 6 11 1 17 -2 13 -5z"/>
<path d="M6031 1918 c1 -30 2 -30 8 -9 9 35 29 37 34 4 4 -27 4 -27 6 5 1 28
-2 32 -24 32 -22 0 -25 -4 -24 -32z"/>
<path d="M6202 1920 c0 -19 2 -27 5 -17 2 9 2 25 0 35 -3 9 -5 1 -5 -18z"/>
<path d="M6231 1918 c1 -30 2 -30 8 -9 9 35 29 37 34 4 4 -27 4 -27 6 5 1 28
-2 32 -24 32 -22 0 -25 -4 -24 -32z"/>
<path d="M6301 1920 c13 -36 24 -38 33 -7 9 36 7 42 -9 21 -13 -17 -14 -17
-15 -1 0 9 -4 17 -9 17 -6 0 -6 -12 0 -30z"/>
<path d="M6362 1920 c0 -19 2 -27 5 -17 2 9 2 25 0 35 -3 9 -5 1 -5 -18z"/>
<path d="M6532 1920 c0 -19 2 -27 5 -17 2 9 2 25 0 35 -3 9 -5 1 -5 -18z"/>
<path d="M6564 1936 c-9 -24 4 -48 23 -44 12 2 18 12 18 28 0 29 -32 41 -41
16z m36 -16 c0 -11 -7 -20 -15 -20 -8 0 -15 9 -15 20 0 11 7 20 15 20 8 0 15
-9 15 -20z"/>
<path d="M6631 1918 c1 -30 2 -30 8 -9 9 35 29 37 34 4 4 -27 4 -27 6 5 1 28
-2 32 -24 32 -22 0 -25 -4 -24 -32z"/>
<path d="M6774 1936 c-9 -24 4 -48 23 -44 12 2 18 12 18 28 0 29 -32 41 -41
16z m36 -16 c0 -11 -7 -20 -15 -20 -8 0 -15 9 -15 20 0 11 7 20 15 20 8 0 15
-9 15 -20z"/>
<path d="M4413 1933 c15 -2 37 -2 50 0 12 2 0 4 -28 4 -27 0 -38 -2 -22 -4z"/>
<path d="M5702 1918 c-22 -22 -24 -22 -52 -6 -17 9 -30 13 -30 8 0 -5 10 -12
23 -17 19 -6 17 -8 -18 -14 l-40 -6 38 -2 c29 -1 40 -6 47 -23 l9 -23 0 22 c1
12 13 35 27 52 30 36 28 41 -4 9z"/>
<path d="M7044 1912 c14 -19 26 -44 26 -57 0 -13 -12 -38 -26 -57 l-26 -33 31
33 c17 18 31 43 31 57 0 14 -14 39 -31 57 l-31 33 26 -33z"/>
<path d="M3860 1888 c-25 -22 -36 -36 -25 -30 19 10 84 72 74 72 -2 -1 -24
-19 -49 -42z"/>
<path d="M4613 1923 c15 -2 39 -2 55 0 15 2 2 4 -28 4 -30 0 -43 -2 -27 -4z"/>
<path d="M4790 1919 c0 -5 23 -9 52 -9 28 0 49 2 47 4 -9 8 -99 13 -99 5z"/>
<path d="M2632 1880 c1 -28 3 -34 5 -17 2 15 8 27 13 27 5 0 11 -12 13 -27 4
-26 4 -26 6 5 1 22 -4 32 -13 32 -8 0 -17 6 -19 13 -3 6 -5 -8 -5 -33z"/>
<path d="M2781 1883 c-1 -37 2 -43 19 -43 11 0 20 4 20 10 0 5 -7 7 -15 4 -11
-4 -15 0 -15 16 0 16 4 20 15 16 8 -3 15 -1 15 4 0 6 -6 10 -14 10 -8 0 -17 6
-19 13 -3 6 -6 -7 -6 -30z"/>
<path d="M2898 1910 c-6 -18 3 -70 12 -70 4 0 5 11 2 25 -2 15 0 25 7 25 6 0
11 -11 11 -25 0 -14 3 -25 8 -25 6 0 7 28 3 75 -1 6 -6 3 -11 -5 -8 -12 -11
-13 -19 -1 -7 10 -9 11 -13 1z"/>
<path d="M5015 1910 c17 -4 39 -8 50 -9 16 -1 17 1 5 9 -8 5 -31 9 -50 9 l-35
-1 30 -8z"/>
<path d="M5213 1903 c15 -2 37 -2 50 0 12 2 0 4 -28 4 -27 0 -38 -2 -22 -4z"/>
<path d="M2095 1880 c10 -11 20 -20 23 -20 3 0 -3 9 -13 20 -10 11 -20 20 -23
20 -3 0 3 -9 13 -20z"/>
<path d="M2451 1858 c0 -24 3 -37 6 -30 2 6 11 12 19 12 8 0 14 4 14 10 0 5
-7 7 -15 4 -11 -4 -15 0 -15 16 0 16 4 20 15 16 8 -3 15 -1 15 4 0 6 -9 10
-20 10 -17 0 -20 -6 -19 -42z"/>
<path d="M2511 1873 c-1 -27 3 -33 19 -33 16 0 20 6 19 33 -2 30 -2 30 -6 5
-2 -16 -8 -28 -13 -28 -5 0 -11 12 -13 28 -4 25 -4 25 -6 -5z"/>
<path d="M2570 1886 c0 -9 2 -16 4 -16 2 0 11 -3 19 -6 11 -4 15 0 13 13 -4
23 -36 31 -36 9z"/>
<path d="M2690 1886 c0 -9 2 -16 4 -16 2 0 11 -3 19 -6 11 -4 15 0 13 13 -4
23 -36 31 -36 9z"/>
<path d="M2841 1873 c-1 -27 3 -33 19 -33 16 0 20 6 19 33 -2 30 -2 30 -6 5
-2 -16 -8 -28 -13 -28 -5 0 -11 12 -13 28 -4 25 -4 25 -6 -5z"/>
<path d="M2964 1886 c-8 -22 3 -49 19 -43 6 2 12 14 12 27 0 27 -22 39 -31 16z
m26 -16 c0 -11 -4 -20 -10 -20 -5 0 -10 9 -10 20 0 11 5 20 10 20 6 0 10 -9
10 -20z"/>
<path d="M3021 1868 c2 -31 2 -31 6 -5 2 15 8 27 13 27 5 0 11 -12 13 -27 4
-26 4 -26 6 5 1 26 -3 32 -19 32 -16 0 -20 -6 -19 -32z"/>
<path d="M5413 1893 c15 -2 37 -2 50 0 12 2 0 4 -28 4 -27 0 -38 -2 -22 -4z"/>
<path d="M5630 1860 c-8 -5 -12 -11 -10 -14 3 -2 14 2 24 10 22 15 10 19 -14
4z"/>
<path d="M2130 1855 c0 -7 81 -47 86 -43 2 3 -17 14 -41 26 -25 12 -45 20 -45
17z"/>
<path d="M2570 1849 c0 -5 9 -9 20 -9 11 0 20 2 20 4 0 2 -9 6 -20 9 -11 3
-20 1 -20 -4z"/>
<path d="M2690 1849 c0 -5 9 -9 20 -9 11 0 20 2 20 4 0 2 -9 6 -20 9 -11 3
-20 1 -20 -4z"/>
<path d="M3780 1835 c-14 -8 -20 -14 -14 -15 5 0 19 7 30 15 24 18 16 19 -16
0z"/>
<path d="M6495 1840 c-3 -6 1 -7 9 -4 20 8 20 -6 1 -32 -20 -27 -19 -34 8 -34
16 0 18 3 8 9 -9 6 -10 11 -2 15 16 11 14 56 -3 56 -8 0 -18 -4 -21 -10z"/>
<path d="M6204 1800 c1 -18 7 -26 24 -28 19 -3 22 1 22 27 0 17 -4 31 -10 31
-5 0 -10 -11 -10 -25 0 -31 -17 -33 -23 -2 -3 19 -4 19 -3 -3z"/>
<path d="M6275 1820 c-8 -13 -8 -12 20 -29 19 -12 19 -12 -4 -7 -17 3 -21 2
-13 -6 17 -17 42 -1 38 24 -3 25 -30 36 -41 18z"/>
<path d="M6344 1816 c-13 -33 23 -65 41 -36 3 5 0 7 -8 4 -8 -3 -18 -1 -22 5
-3 7 3 11 15 11 13 0 20 5 18 13 -7 18 -37 21 -44 3z m33 -2 c-3 -3 -12 -4
-19 -1 -8 3 -5 6 6 6 11 1 17 -2 13 -5z"/>
<path d="M6411 1798 c0 -32 1 -32 10 -8 6 13 15 28 22 32 8 5 4 8 -10 8 -19 0
-23 -5 -22 -32z"/>
<path d="M3720 1810 c-8 -5 -10 -10 -5 -10 6 0 17 5 25 10 8 5 11 10 5 10 -5
0 -17 -5 -25 -10z"/>
<path d="M2240 1800 c8 -5 20 -10 25 -10 6 0 3 5 -5 10 -8 5 -19 10 -25 10 -5
0 -3 -5 5 -10z"/>
<path d="M5705 1790 c10 -11 20 -20 23 -20 3 0 -3 9 -13 20 -10 11 -20 20 -23
20 -3 0 3 -9 13 -20z"/>
<path d="M2318 1773 c7 -3 16 -2 19 1 4 3 -2 6 -13 5 -11 0 -14 -3 -6 -6z"/>
<path d="M5740 1765 c0 -7 61 -37 66 -33 2 3 -12 12 -31 21 -19 9 -35 15 -35
12z"/>
<path d="M6970 1750 c-19 -11 -31 -19 -27 -20 11 0 67 29 67 35 0 7 -1 7 -40
-15z"/>
<path d="M2398 1753 c7 -3 16 -2 19 1 4 3 -2 6 -13 5 -11 0 -14 -3 -6 -6z"/>
<path d="M3548 1753 c7 -3 16 -2 19 1 4 3 -2 6 -13 5 -11 0 -14 -3 -6 -6z"/>
<path d="M2438 1743 c7 -3 16 -2 19 1 4 3 -2 6 -13 5 -11 0 -14 -3 -6 -6z"/>
<path d="M3498 1743 c7 -3 16 -2 19 1 4 3 -2 6 -13 5 -11 0 -14 -3 -6 -6z"/>
<path d="M2488 1733 c7 -3 16 -2 19 1 4 3 -2 6 -13 5 -11 0 -14 -3 -6 -6z"/>
<path d="M3448 1733 c7 -3 16 -2 19 1 4 3 -2 6 -13 5 -11 0 -14 -3 -6 -6z"/>
<path d="M2548 1723 c6 -2 18 -2 25 0 6 3 1 5 -13 5 -14 0 -19 -2 -12 -5z"/>
<path d="M3383 1723 c9 -2 23 -2 30 0 6 3 -1 5 -18 5 -16 0 -22 -2 -12 -5z"/>
<path d="M2613 1713 c9 -2 25 -2 35 0 9 3 1 5 -18 5 -19 0 -27 -2 -17 -5z"/>
<path d="M3303 1713 c9 -2 25 -2 35 0 9 3 1 5 -18 5 -19 0 -27 -2 -17 -5z"/>
<path d="M2708 1703 c12 -2 32 -2 45 0 12 2 2 4 -23 4 -25 0 -35 -2 -22 -4z"/>
<path d="M3160 1696 c0 -7 3 -29 7 -47 l7 -34 6 30 c5 26 10 30 35 28 28 -2
29 -1 12 12 -18 13 -17 14 10 18 16 2 6 5 -24 6 -39 1 -53 -3 -53 -13z"/>
<path d="M5878 1703 c7 -3 16 -2 19 1 4 3 -2 6 -13 5 -11 0 -14 -3 -6 -6z"/>
<path d="M6858 1703 c7 -3 16 -2 19 1 4 3 -2 6 -13 5 -11 0 -14 -3 -6 -6z"/>
<path d="M2902 1693 c37 -2 100 -2 140 0 40 1 10 3 -67 3 -77 0 -110 -1 -73
-3z"/>
<path d="M5958 1683 c7 -3 16 -2 19 1 4 3 -2 6 -13 5 -11 0 -14 -3 -6 -6z"/>
<path d="M6778 1683 c7 -3 16 -2 19 1 4 3 -2 6 -13 5 -11 0 -14 -3 -6 -6z"/>
<path d="M6008 1673 c7 -3 16 -2 19 1 4 3 -2 6 -13 5 -11 0 -14 -3 -6 -6z"/>
<path d="M6728 1673 c7 -3 16 -2 19 1 4 3 -2 6 -13 5 -11 0 -14 -3 -6 -6z"/>
<path d="M3191 1665 c0 -5 6 -19 14 -29 8 -11 15 -15 15 -10 0 6 -7 19 -15 30
-8 10 -14 15 -14 9z"/>
<path d="M6063 1663 c9 -2 23 -2 30 0 6 3 -1 5 -18 5 -16 0 -22 -2 -12 -5z"/>
<path d="M6663 1663 c9 -2 23 -2 30 0 6 3 -1 5 -18 5 -16 0 -22 -2 -12 -5z"/>
<path d="M6148 1653 c12 -2 30 -2 40 0 9 3 -1 5 -23 4 -22 0 -30 -2 -17 -4z"/>
<path d="M6568 1653 c12 -2 30 -2 40 0 9 3 -1 5 -23 4 -22 0 -30 -2 -17 -4z"/>
<path d="M6308 1643 c34 -2 90 -2 125 0 34 2 6 3 -63 3 -69 0 -97 -1 -62 -3z"/>
<path d="M3280 1536 c0 -12 45 -76 54 -76 5 0 4 6 -1 13 -5 6 -19 25 -31 41
-12 16 -22 26 -22 22z"/>
<path d="M3616 1449 c-16 -15 -22 -16 -35 -6 -14 10 -14 10 -3 -5 11 -13 11
-22 1 -40 -9 -19 -9 -21 2 -11 10 10 16 10 27 0 13 -10 14 -9 3 11 -12 23 -8
42 10 42 5 0 9 -13 9 -30 0 -16 3 -30 8 -30 7 0 8 78 0 84 -1 2 -12 -5 -22
-15z"/>
<path d="M3840 1461 c0 -5 -9 -11 -21 -14 -30 -8 -23 -61 9 -65 20 -3 22 1 22
42 0 25 -2 46 -5 46 -3 0 -5 -4 -5 -9z m0 -46 c0 -16 -6 -25 -15 -25 -9 0 -15
9 -15 25 0 16 6 25 15 25 9 0 15 -9 15 -25z"/>
<path d="M3517 1444 c-4 -4 -7 -18 -7 -31 0 -27 26 -41 43 -24 9 9 8 11 -4 6
-10 -4 -20 -2 -24 4 -3 7 3 11 15 11 15 0 20 5 18 17 -3 19 -29 29 -41 17z
m33 -14 c0 -5 -7 -10 -15 -10 -8 0 -15 5 -15 10 0 6 7 10 15 10 8 0 15 -4 15
-10z"/>
<path d="M3667 1444 c-4 -4 -7 -18 -7 -31 0 -26 26 -41 42 -25 8 8 5 9 -11 5
-12 -3 -21 -1 -21 6 0 6 9 11 21 11 14 0 19 5 17 17 -3 19 -29 29 -41 17z m33
-14 c0 -5 -7 -10 -15 -10 -8 0 -15 5 -15 10 0 6 7 10 15 10 8 0 15 -4 15 -10z"/>
<path d="M3732 1413 c1 -37 1 -37 5 -5 3 18 10 32 18 32 8 0 16 -14 18 -32 l5
-33 -2 35 c-1 28 -5 36 -23 38 -21 3 -23 -1 -21 -35z"/>
<path d="M3447 1416 c-7 -18 5 -33 26 -33 12 0 14 4 8 10 -7 7 -7 15 -1 22 6
7 3 11 -10 12 -10 1 -21 -4 -23 -11z m20 -11 c0 -8 -4 -12 -9 -9 -5 3 -6 10
-3 15 9 13 12 11 12 -6z"/>
<path d="M3879 1417 c7 -7 7 -15 1 -22 -6 -7 -3 -11 10 -12 20 -2 32 18 22 34
-4 5 -15 10 -25 10 -12 0 -14 -4 -8 -10z m26 -6 c3 -5 2 -12 -3 -15 -5 -3 -9
1 -9 9 0 17 3 19 12 6z"/>
<path d="M3390 1375 c0 -13 52 -86 57 -81 3 2 -9 23 -26 47 -17 23 -31 38 -31
34z"/>
<path d="M3516 1182 c10 -19 25 -39 33 -45 9 -8 8 0 -5 21 -10 19 -25 39 -33
45 -9 8 -8 0 5 -21z"/>
<path d="M3620 1034 c0 -3 11 -22 25 -42 30 -44 33 -33 4 14 -19 32 -29 41
-29 28z"/>
<path d="M3723 943 c31 -2 83 -2 115 0 31 2 5 3 -58 3 -63 0 -89 -1 -57 -3z"/>
<path d="M3513 933 c9 -2 23 -2 30 0 6 3 -1 5 -18 5 -16 0 -22 -2 -12 -5z"/>
<path d="M4033 933 c9 -2 23 -2 30 0 6 3 -1 5 -18 5 -16 0 -22 -2 -12 -5z"/>
<path d="M3418 923 c7 -3 16 -2 19 1 4 3 -2 6 -13 5 -11 0 -14 -3 -6 -6z"/>
<path d="M4138 923 c7 -3 16 -2 19 1 4 3 -2 6 -13 5 -11 0 -14 -3 -6 -6z"/>
<path d="M3348 913 c7 -3 16 -2 19 1 4 3 -2 6 -13 5 -11 0 -14 -3 -6 -6z"/>
<path d="M4208 913 c7 -3 16 -2 19 1 4 3 -2 6 -13 5 -11 0 -14 -3 -6 -6z"/>
<path d="M3452 820 c0 -33 2 -39 7 -21 9 35 29 37 34 4 4 -27 4 -27 6 5 1 25
-3 32 -18 32 -11 0 -22 6 -24 13 -3 6 -5 -8 -5 -33z"/>
<path d="M4125 850 c-3 -6 1 -7 9 -4 20 8 20 -6 1 -32 -20 -27 -19 -34 8 -34
16 0 18 3 8 9 -9 6 -10 11 -2 15 16 11 14 56 -3 56 -8 0 -18 -4 -21 -10z"/>
<path d="M3394 825 c-4 -8 -4 -22 0 -30 6 -16 36 -21 36 -5 0 5 -7 7 -15 4
-11 -4 -15 0 -15 16 0 16 4 20 15 16 8 -3 15 -1 15 4 0 16 -30 11 -36 -5z"/>
<path d="M3524 826 c-9 -24 4 -48 23 -44 12 2 18 12 18 28 0 29 -32 41 -41 16z
m36 -16 c0 -11 -7 -20 -15 -20 -8 0 -15 9 -15 20 0 11 7 20 15 20 8 0 15 -9
15 -20z"/>
<path d="M3594 826 c-9 -24 4 -48 23 -44 12 2 18 12 18 28 0 29 -32 41 -41 16z
m36 -16 c0 -11 -7 -20 -15 -20 -8 0 -15 9 -15 20 0 11 7 20 15 20 8 0 15 -9
15 -20z"/>
<path d="M3665 830 c-8 -13 -8 -12 20 -29 19 -12 19 -12 -4 -7 -17 3 -21 2
-13 -6 17 -17 42 -1 38 24 -3 25 -30 36 -41 18z"/>
<path d="M3734 826 c-13 -33 23 -65 41 -36 3 5 0 7 -8 4 -8 -3 -18 -1 -22 5
-3 7 3 11 15 11 13 0 20 5 18 13 -7 18 -37 21 -44 3z m33 -2 c-3 -3 -12 -4
-19 -1 -8 3 -5 6 6 6 11 1 17 -2 13 -5z"/>
<path d="M3834 810 c1 -18 7 -26 24 -28 19 -3 22 1 22 27 0 17 -4 31 -10 31
-5 0 -10 -11 -10 -25 0 -31 -17 -33 -23 -2 -3 19 -4 19 -3 -3z"/>
<path d="M3905 830 c-8 -13 -8 -12 20 -29 19 -12 19 -12 -4 -7 -17 3 -21 2
-13 -6 17 -17 42 -1 38 24 -3 25 -30 36 -41 18z"/>
<path d="M3974 826 c-13 -33 23 -65 41 -36 3 5 0 7 -8 4 -8 -3 -18 -1 -22 5
-3 7 3 11 15 11 13 0 20 5 18 13 -7 18 -37 21 -44 3z m33 -2 c-3 -3 -12 -4
-19 -1 -8 3 -5 6 6 6 11 1 17 -2 13 -5z"/>
<path d="M4041 808 c0 -32 1 -32 10 -8 6 13 15 28 22 32 8 5 4 8 -10 8 -19 0
-23 -5 -22 -32z"/>
<path d="M4474 808 c1 -14 -11 -30 -33 -45 -19 -13 -29 -23 -23 -23 6 0 24 12
41 26 30 25 39 48 23 58 -5 3 -8 -5 -8 -16z"/>
<path d="M3137 749 c7 -7 15 -10 18 -7 3 3 -2 9 -12 12 -14 6 -15 5 -6 -5z"/>
<path d="M3238 713 c7 -3 16 -2 19 1 4 3 -2 6 -13 5 -11 0 -14 -3 -6 -6z"/>
<path d="M4318 713 c7 -3 16 -2 19 1 4 3 -2 6 -13 5 -11 0 -14 -3 -6 -6z"/>
<path d="M3288 703 c7 -3 16 -2 19 1 4 3 -2 6 -13 5 -11 0 -14 -3 -6 -6z"/>
<path d="M4268 703 c7 -3 16 -2 19 1 4 3 -2 6 -13 5 -11 0 -14 -3 -6 -6z"/>
<path d="M3338 693 c6 -2 18 -2 25 0 6 3 1 5 -13 5 -14 0 -19 -2 -12 -5z"/>
<path d="M4208 693 c6 -2 18 -2 25 0 6 3 1 5 -13 5 -14 0 -19 -2 -12 -5z"/>
<path d="M3413 683 c9 -2 23 -2 30 0 6 3 -1 5 -18 5 -16 0 -22 -2 -12 -5z"/>
<path d="M4133 683 c9 -2 23 -2 30 0 6 3 -1 5 -18 5 -16 0 -22 -2 -12 -5z"/>
<path d="M3508 673 c12 -2 32 -2 45 0 12 2 2 4 -23 4 -25 0 -35 -2 -22 -4z"/>
<path d="M4018 673 c12 -2 32 -2 45 0 12 2 2 4 -23 4 -25 0 -35 -2 -22 -4z"/>
<path d="M3713 663 c43 -2 110 -2 150 0 40 1 5 3 -78 3 -82 0 -115 -2 -72 -3z"/>
<path d="M588 3463 c7 -3 16 -2 19 1 4 3 -2 6 -13 5 -11 0 -14 -3 -6 -6z"/>
<path d="M519 3433 c-13 -16 -12 -17 4 -4 9 7 17 15 17 17 0 8 -8 3 -21 -13z"/>
<path d="M650 3446 c0 -2 8 -10 18 -17 15 -13 16 -12 3 4 -13 16 -21 21 -21
13z"/>
<path d="M692 3365 c0 -16 2 -22 5 -12 2 9 2 23 0 30 -3 6 -5 -1 -5 -18z"/>
<path d="M491 3364 c0 -11 3 -14 6 -6 3 7 2 16 -1 19 -3 4 -6 -2 -5 -13z"/>
<path d="M658 3298 c-15 -15 -23 -28 -19 -28 9 0 56 49 50 53 -2 1 -16 -10
-31 -25z"/>
<path d="M9053 3323 c9 -2 23 -2 30 0 6 3 -1 5 -18 5 -16 0 -22 -2 -12 -5z"/>
<path d="M510 3306 c0 -2 8 -10 18 -17 15 -13 16 -12 3 4 -13 16 -21 21 -21
13z"/>
<path d="M9145 3290 c10 -11 20 -20 23 -20 3 0 -3 9 -13 20 -10 11 -20 20 -23
20 -3 0 3 -9 13 -20z"/>
<path d="M578 3263 c7 -3 12 -24 12 -54 l0 -48 -152 -4 -153 -3 153 -2 152 -2
0 -49 c0 -42 4 -51 28 -65 l27 -17 -22 20 c-18 15 -23 30 -23 65 l0 45 153 4
152 3 -152 2 -153 2 0 49 c0 30 5 51 13 54 6 3 -1 5 -18 5 -16 0 -24 -2 -17
-5z"/>
<path d="M9182 3215 c0 -16 2 -22 5 -12 2 9 2 23 0 30 -3 6 -5 -1 -5 -18z"/>
<path d="M8952 3210 c0 -14 2 -19 5 -12 2 6 2 18 0 25 -3 6 -5 1 -5 -13z"/>
<path d="M9165 3159 c-4 -11 -21 -29 -38 -40 -18 -10 -26 -19 -19 -19 16 0 72
54 72 69 0 18 -8 13 -15 -10z"/>
<path d="M8985 3130 c10 -11 20 -20 23 -20 3 0 -3 9 -13 20 -10 11 -20 20 -23
20 -3 0 3 -9 13 -20z"/>
<path d="M9048 3093 c7 -3 12 -24 12 -54 l0 -49 -167 -3 -168 -3 168 -2 167
-2 0 -59 c0 -53 3 -60 28 -75 l27 -17 -22 20 c-19 16 -23 30 -23 75 l0 56 168
3 167 3 -167 2 -168 2 0 49 c0 30 5 51 13 54 6 3 -1 5 -18 5 -16 0 -24 -2 -17
-5z"/>
<path d="M770 2935 c0 -6 121 -87 125 -83 2 1 -26 22 -61 46 -35 23 -64 40
-64 37z"/>
<path d="M474 2780 c1 -18 7 -26 24 -28 19 -3 22 1 22 27 0 17 -4 31 -10 31
-5 0 -10 -11 -10 -25 0 -31 -17 -33 -23 -2 -3 19 -4 19 -3 -3z"/>
<path d="M545 2800 c-8 -13 -8 -12 20 -29 19 -12 19 -12 -4 -7 -17 3 -21 2
-13 -6 17 -17 42 -1 38 24 -3 25 -30 36 -41 18z"/>
<path d="M614 2796 c-13 -33 23 -65 41 -36 3 5 0 7 -8 4 -8 -3 -18 -1 -22 5
-3 7 3 11 15 11 13 0 20 5 18 13 -7 18 -37 21 -44 3z m33 -2 c-3 -3 -12 -4
-19 -1 -8 3 -5 6 6 6 11 1 17 -2 13 -5z"/>
<path d="M681 2778 c0 -32 1 -32 10 -8 6 13 15 28 22 32 8 5 4 8 -10 8 -19 0
-23 -5 -22 -32z"/>
<path d="M9270 2725 c0 -6 121 -87 125 -83 2 1 -26 22 -61 46 -35 23 -64 40
-64 37z"/>
<path d="M8873 2604 c-4 -10 0 -20 10 -26 25 -13 21 -31 -4 -23 -15 5 -19 4
-15 -4 4 -6 16 -11 27 -11 23 0 27 38 4 46 -8 4 -15 11 -15 16 0 6 7 7 16 4 8
-3 12 -2 9 4 -9 15 -25 12 -32 -6z"/>
<path d="M9058 2605 c-8 -9 6 -58 18 -62 5 -2 9 11 8 29 -1 30 -13 46 -26 33z"/>
<path d="M8931 2573 c5 -14 8 -32 5 -40 -3 -7 -2 -13 3 -13 4 0 15 18 24 40 8
22 11 40 6 40 -5 0 -9 -7 -9 -15 0 -8 -4 -15 -10 -15 -5 0 -10 7 -10 15 0 8
-4 15 -10 15 -6 0 -6 -10 1 -27z"/>
<path d="M8995 2590 c-8 -13 -8 -12 20 -29 19 -12 19 -12 -4 -7 -17 3 -21 2
-13 -6 17 -17 42 -1 38 24 -3 25 -30 36 -41 18z"/>
<path d="M9104 2586 c-13 -33 23 -65 41 -36 3 5 0 7 -8 4 -8 -3 -18 -1 -22 5
-3 7 3 11 15 11 13 0 20 5 18 13 -7 18 -37 21 -44 3z m33 -2 c-3 -3 -12 -4
-19 -1 -8 3 -5 6 6 6 11 1 17 -2 13 -5z"/>
<path d="M9171 2568 c1 -29 2 -30 8 -9 9 35 29 37 34 4 l4 -28 2 28 c1 34 28
36 34 2 4 -23 4 -23 3 2 -1 25 -5 28 -43 31 -43 3 -43 3 -42 -30z"/>
<path d="M322 430 c0 -19 2 -27 5 -17 2 9 2 25 0 35 -3 9 -5 1 -5 -18z"/>
</g>
</svg>
